<svg width="60" height="60" viewBox="0 0 60 60" fill="none" xmlns="http://www.w3.org/2000/svg">
<rect width="59.8007" height="60" rx="4" fill="#F3F6FF"/>
<path d="M10.9634 8C10.9634 6.89543 11.8589 6 12.9634 6H59.7634V21.6H12.9634C11.8589 21.6 10.9634 20.7046 10.9634 19.6V8Z" fill="#D8DAE5"/>
<path d="M11 27C11 25.8954 11.8954 25 13 25H59.7V49H13C11.8954 49 11 48.1046 11 47V27Z" fill="#D8DAE5"/>
<line y1="-0.3" x2="2.7548" y2="-0.3" transform="matrix(-0.814043 -0.580805 0.528731 -0.848789 18.4385 31.8)" stroke="#8F95B2" stroke-width="0.6"/>
<line y1="-0.3" x2="2.7548" y2="-0.3" transform="matrix(-0.814043 0.580805 -0.528731 -0.848789 16.196 30.2)" stroke="#8F95B2" stroke-width="0.6"/>
<line y1="-0.3" x2="2.7548" y2="-0.3" transform="matrix(0.825042 0.564965 -0.512338 0.858851 14 12.0867)" stroke="#8F95B2" stroke-width="0.6"/>
<line y1="-0.3" x2="2.7548" y2="-0.3" transform="matrix(0.802742 -0.596429 0.544928 0.838414 16.2728 13.643)" stroke="#8F95B2" stroke-width="0.6"/>
<path d="M23 31C23 30.4477 23.4477 30 24 30H59.7V32H24C23.4477 32 23 31.5523 23 31V31Z" fill="#8F95B2"/>
<path d="M23 13C23 12.4477 23.4477 12 24 12H59.7V14H24C23.4477 14 23 13.5523 23 13V13Z" fill="#8F95B2"/>
<path d="M23 37C23 35.8954 23.8954 35 25 35H59.7V44H25C23.8954 44 23 43.1046 23 42V37Z" fill="#8F95B2"/>
</svg>
