<svg width="60" height="60" viewBox="0 0 60 60" fill="none" xmlns="http://www.w3.org/2000/svg">
<rect width="59.8007" height="60" rx="4" fill="#F3F6FF"/>
<path d="M10.9634 8C10.9634 6.89543 11.8589 6 12.9634 6H59.7634V21.6H12.9634C11.8589 21.6 10.9634 20.7046 10.9634 19.6V8Z" fill="#D9DFEF"/>
<path d="M11 27C11 25.8954 11.8954 25 13 25H60V54H13C11.8954 54 11 53.1046 11 52V27Z" fill="#D9DFEF"/>
<line y1="-0.3" x2="2.7548" y2="-0.3" transform="matrix(-0.814043 -0.580805 0.528731 -0.848789 18.4385 31.8)" stroke="#2954CC" stroke-width="0.6"/>
<line y1="-0.3" x2="2.7548" y2="-0.3" transform="matrix(-0.814043 0.580805 -0.528731 -0.848789 16.196 30.2)" stroke="#2954CC" stroke-width="0.6"/>
<line y1="-0.3" x2="2.7548" y2="-0.3" transform="matrix(0.825042 0.564965 -0.512338 0.858851 14 12.0867)" stroke="#2954CC" stroke-width="0.6"/>
<line y1="-0.3" x2="2.7548" y2="-0.3" transform="matrix(0.802742 -0.596429 0.544928 0.838414 16.2728 13.643)" stroke="#2954CC" stroke-width="0.6"/>
<path d="M23 31C23 30.4477 23.4477 30 24 30H59.7V32H24C23.4477 32 23 31.5523 23 31Z" fill="#2954CC"/>
<path d="M23 13C23 12.4477 23.4477 12 24 12H59.7V14H24C23.4477 14 23 13.5523 23 13Z" fill="#2954CC"/>
<path d="M23 37C23 35.8954 23.8954 35 25 35H60V50H25C23.8954 50 23 49.1046 23 48V37Z" fill="#2954CC" fill-opacity="0.17"/>
</svg>
