<svg width="60" height="60" viewBox="0 0 60 60" fill="none" xmlns="http://www.w3.org/2000/svg">
<rect width="60" height="60" rx="4" fill="#F3F6FF"/>
<rect x="9.03" y="10" width="42.14" height="40" rx="3" fill="#D8DAE5"/>
<path d="M13.0433 15C13.0433 14.4477 13.4911 14 14.0433 14H46.1567C46.709 14 47.1567 14.4477 47.1567 15V15C47.1567 15.5523 46.709 16 46.1567 16H14.0433C13.4911 16 13.0433 15.5523 13.0433 15V15Z" fill="#8F95B2"/>
<path d="M13.0433 24C13.0433 23.4477 13.4911 23 14.0433 23H46.1567C46.709 23 47.1567 23.4477 47.1567 24V24C47.1567 24.5523 46.709 25 46.1567 25H14.0433C13.4911 25 13.0433 24.5523 13.0433 24V24Z" fill="#8F95B2"/>
<path d="M13.0433 28C13.0433 27.4477 13.4911 27 14.0433 27H46.1567C46.709 27 47.1567 27.4477 47.1567 28V28C47.1567 28.5523 46.709 29 46.1567 29H14.0433C13.4911 29 13.0433 28.5523 13.0433 28V28Z" fill="#8F95B2"/>
<path d="M13.0433 32C13.0433 31.4477 13.4911 31 14.0433 31H46.1567C46.709 31 47.1567 31.4477 47.1567 32V32C47.1567 32.5523 46.709 33 46.1567 33H14.0433C13.4911 33 13.0433 32.5523 13.0433 32V32Z" fill="#8F95B2"/>
<rect x="22.0733" y="44" width="16.0533" height="2" rx="1" fill="#8F95B2"/>
</svg>
