<svg width="60" height="60" viewBox="0 0 60 60" fill="none" xmlns="http://www.w3.org/2000/svg">
<rect width="59.8007" height="60" rx="4" fill="#F3F6FF"/>
<rect x="12" y="17" width="6" height="6" rx="1" fill="#2954CC"/>
<line y1="-0.4" x2="2.29647" y2="-0.4" transform="matrix(0.698027 0.716071 -0.698027 0.716071 13 19.815)" stroke="white" stroke-width="0.8"/>
<line y1="-0.4" x2="3.49127" y2="-0.4" transform="matrix(0.698027 -0.716071 0.698027 0.716071 14.603 21.4594)" stroke="white" stroke-width="0.8"/>
<rect x="21" y="19" width="27" height="2" rx="1" fill="#D9DFEF"/>
<rect x="12" y="27" width="6" height="6" rx="1" fill="#2954CC"/>
<rect x="21" y="29" width="27" height="2" rx="1" fill="#D9DFEF"/>
<rect x="12" y="37" width="6" height="6" rx="1" fill="#2954CC"/>
<line y1="-0.4" x2="2.29647" y2="-0.4" transform="matrix(0.698027 0.716071 -0.698027 0.716071 13 39.815)" stroke="white" stroke-width="0.8"/>
<line y1="-0.4" x2="3.49127" y2="-0.4" transform="matrix(0.698027 -0.716071 0.698027 0.716071 14.603 41.4594)" stroke="white" stroke-width="0.8"/>
<rect x="21" y="39" width="27" height="2" rx="1" fill="#D9DFEF"/>
</svg>
