<svg width="60" height="60" viewBox="0 0 60 60" fill="none" xmlns="http://www.w3.org/2000/svg">
<rect width="59.8007" height="60" rx="4" fill="#F3F6FF"/>
<rect x="8.4" y="27.4" width="42.2" height="9.2" rx="1.6" fill="white" stroke="#D8DAE5" stroke-width="0.8"/>
<path d="M21 32C21 31.4477 21.4477 31 22 31H48C48.5523 31 49 31.4477 49 32C49 32.5523 48.5523 33 48 33H22C21.4477 33 21 32.5523 21 32Z" fill="#8F95B2"/>
<path d="M8 23C8 22.4477 8.44772 22 9 22H49C49.5523 22 50 22.4477 50 23C50 23.5523 49.5523 24 49 24H9C8.44772 24 8 23.5523 8 23Z" fill="#D8DAE5"/>
<path d="M8 19C8 18.4477 8.44772 18 9 18H36C36.5523 18 37 18.4477 37 19C37 19.5523 36.5523 20 36 20H9C8.44772 20 8 19.5523 8 19Z" fill="#D8DAE5"/>
<rect x="11.1463" y="30.5143" width="3.77561" height="3.08571" fill="#8F95B2"/>
<rect x="11.7756" y="31.0286" width="2.51707" height="2.05714" fill="white"/>
<rect x="11.7756" y="30" width="0.629268" height="0.514286" fill="#8F95B2"/>
<rect x="13.6634" y="30" width="0.629268" height="1.032" fill="#8F95B2"/>
</svg>
