<svg width="60" height="60" viewBox="0 0 60 60" fill="none" xmlns="http://www.w3.org/2000/svg">
<rect width="59.8007" height="60" rx="4" fill="#F3F6FF"/>
<rect x="8.4" y="27.4" width="42.2" height="9.2" rx="1.6" fill="white" stroke="#D9DFEF" stroke-width="0.8"/>
<path d="M12 32C12 31.4477 12.4477 31 13 31H39C39.5523 31 40 31.4477 40 32C40 32.5523 39.5523 33 39 33H13C12.4477 33 12 32.5523 12 32Z" fill="#2954CC"/>
<path d="M8 23C8 22.4477 8.44772 22 9 22H49C49.5523 22 50 22.4477 50 23C50 23.5523 49.5523 24 49 24H9C8.44772 24 8 23.5523 8 23Z" fill="#D9DFEF"/>
<path d="M8 19C8 18.4477 8.44772 18 9 18H36C36.5523 18 37 18.4477 37 19C37 19.5523 36.5523 20 36 20H9C8.44772 20 8 19.5523 8 19Z" fill="#D9DFEF"/>
</svg>
