<svg width="60" height="60" viewBox="0 0 60 60" fill="none" xmlns="http://www.w3.org/2000/svg">
<rect width="59.8007" height="60" rx="4" fill="#F3F6FF"/>
<rect x="9" y="10" width="42" height="40" rx="3" fill="#D8DAE5"/>
<path d="M13 15C13 14.4477 13.4477 14 14 14H27C27.5523 14 28 14.4477 28 15V15C28 15.5523 27.5523 16 27 16H14C13.4477 16 13 15.5523 13 15V15Z" fill="#8F95B2"/>
<path d="M13 24C13 23.4477 13.4477 23 14 23H46C46.5523 23 47 23.4477 47 24V24C47 24.5523 46.5523 25 46 25H14C13.4477 25 13 24.5523 13 24V24Z" fill="#8F95B2"/>
<path d="M13 28C13 27.4477 13.4477 27 14 27H46C46.5523 27 47 27.4477 47 28V28C47 28.5523 46.5523 29 46 29H14C13.4477 29 13 28.5523 13 28V28Z" fill="#8F95B2"/>
<path d="M13 32C13 31.4477 13.4477 31 14 31H46C46.5523 31 47 31.4477 47 32V32C47 32.5523 46.5523 33 46 33H14C13.4477 33 13 32.5523 13 32V32Z" fill="#8F95B2"/>
<line y1="-0.25" x2="2.62326" y2="-0.25" transform="matrix(0.762409 0.647096 -0.754765 0.655996 44 13.4025)" stroke="#8F95B2" stroke-width="0.5"/>
<line y1="-0.25" x2="2.60943" y2="-0.25" transform="matrix(-0.739549 0.673102 -0.776872 -0.629659 45.9298 13)" stroke="#8F95B2" stroke-width="0.5"/>
<rect x="35" y="42" width="12" height="4" rx="1" fill="#8F95B2"/>
<rect x="36.8" y="43.4286" width="8.33333" height="1.14286" rx="0.571429" fill="white"/>
<rect x="21" y="42" width="12" height="4" rx="1" fill="white"/>
<rect x="22.8" y="43.4286" width="8.33333" height="1.14286" rx="0.571429" fill="#8F95B2"/>
</svg>
