<svg width="60" height="60" viewBox="0 0 60 60" fill="none" xmlns="http://www.w3.org/2000/svg">
<rect width="59.8007" height="60" rx="4" fill="#F3F6FF"/>
<rect x="10" y="27" width="8" height="8" rx="2" fill="#475967"/>
<line y1="-0.3" x2="3.24491" y2="-0.3" transform="matrix(-0.774842 0.632056 -0.940106 -0.341003 14.5143 29.0003)" stroke="white" stroke-width="0.6"/>
<line y1="-0.3" x2="3.24492" y2="-0.3" transform="matrix(0.774842 0.632254 -0.940106 0.340762 12 31.0513)" stroke="white" stroke-width="0.6"/>
<rect x="34" y="35" width="8" height="8" rx="2" transform="rotate(180 34 35)" fill="#475967"/>
<line y1="-0.3" x2="3.24491" y2="-0.3" transform="matrix(0.774842 -0.632056 0.940106 0.341003 29 33.1026)" stroke="white" stroke-width="0.6"/>
<line y1="-0.3" x2="3.24492" y2="-0.3" transform="matrix(-0.774842 -0.632254 0.940106 -0.340762 31.5143 31.0516)" stroke="white" stroke-width="0.6"/>
<path d="M21.8405 28.8363H22.2831V33H21.7904V29.3512C21.603 29.4737 21.3739 29.5785 21.103 29.6657V29.2009C21.1327 29.1879 21.193 29.162 21.2839 29.123C21.3748 29.084 21.4425 29.0543 21.4871 29.0339C21.5334 29.0135 21.591 28.9848 21.6596 28.9477C21.7283 28.9105 21.7886 28.8734 21.8405 28.8363Z" fill="#475967"/>
<path d="M37.7764 31.4004C37.7764 31.7812 37.8604 32.0869 38.0283 32.3174C38.1982 32.5459 38.4453 32.6602 38.7695 32.6602C39.0898 32.6602 39.3311 32.5459 39.4932 32.3174C39.6572 32.0889 39.7393 31.7812 39.7393 31.3945C39.7393 31.002 39.6582 30.6934 39.4961 30.4688C39.3359 30.2422 39.0908 30.1289 38.7607 30.1289C38.4404 30.1289 38.1963 30.2441 38.0283 30.4746C37.8604 30.7051 37.7764 31.0137 37.7764 31.4004ZM40.2461 31.3916C40.2461 31.8896 40.1133 32.2939 39.8477 32.6045C39.582 32.9131 39.2148 33.0674 38.7461 33.0674C38.2949 33.0674 37.9355 32.9111 37.668 32.5986C37.4023 32.2861 37.2695 31.8848 37.2695 31.3945C37.2695 30.8945 37.4033 30.4902 37.6709 30.1816C37.9385 29.873 38.3057 29.7188 38.7725 29.7188C39.2314 29.7188 39.5918 29.874 39.8535 30.1846C40.1152 30.4932 40.2461 30.8955 40.2461 31.3916ZM42.1621 28.8516C41.959 28.8516 41.8193 28.9102 41.7432 29.0273C41.6689 29.1445 41.6318 29.3477 41.6318 29.6367V29.7861H42.4053V30.1494H41.6318V33H41.1426V30.1494H40.6211L40.6621 29.8271L41.1426 29.7861V29.6426C41.1465 29.2285 41.2236 28.9287 41.374 28.7432C41.5264 28.5557 41.7715 28.4619 42.1094 28.4619C42.2402 28.4619 42.4004 28.4766 42.5898 28.5059L42.5576 28.8896C42.3838 28.8643 42.252 28.8516 42.1621 28.8516ZM46.3691 28.6172H46.835V33H46.3164V29.1592C46.1191 29.2881 45.8779 29.3984 45.5928 29.4902V29.001C45.624 28.9873 45.6875 28.96 45.7832 28.9189C45.8789 28.8779 45.9502 28.8467 45.9971 28.8252C46.0459 28.8037 46.1064 28.7734 46.1787 28.7344C46.251 28.6953 46.3145 28.6562 46.3691 28.6172ZM49.8203 32.8975C49.627 33.0107 49.4004 33.0674 49.1406 33.0674C48.8809 33.0674 48.6533 33.0107 48.458 32.8975C48.2627 32.7822 48.1055 32.6211 47.9863 32.4141C47.8691 32.207 47.7812 31.9688 47.7227 31.6992C47.666 31.4297 47.6377 31.1299 47.6377 30.7998C47.6377 30.5283 47.6562 30.2773 47.6934 30.0469C47.7324 29.8164 47.792 29.6074 47.8721 29.4199C47.9521 29.2324 48.0508 29.0732 48.168 28.9424C48.2871 28.8115 48.4287 28.7109 48.5928 28.6406C48.7568 28.5684 48.9395 28.5322 49.1406 28.5322C49.3906 28.5322 49.6113 28.5869 49.8027 28.6963C49.9961 28.8057 50.1523 28.9619 50.2715 29.165C50.3926 29.3662 50.4834 29.6045 50.5439 29.8799C50.6045 30.1533 50.6348 30.46 50.6348 30.7998C50.6348 31.1299 50.6064 31.4297 50.5498 31.6992C50.4932 31.9688 50.4062 32.207 50.2891 32.4141C50.1719 32.6211 50.0156 32.7822 49.8203 32.8975ZM49.6533 29.2148C49.5107 29.0566 49.3398 28.9775 49.1406 28.9775C48.9414 28.9775 48.7705 29.0566 48.6279 29.2148C48.4854 29.3711 48.3779 29.584 48.3057 29.8535C48.2354 30.1211 48.2002 30.4307 48.2002 30.7822C48.2002 31.1396 48.2354 31.4561 48.3057 31.7314C48.3779 32.0049 48.4854 32.2217 48.6279 32.3818C48.7705 32.542 48.9414 32.6221 49.1406 32.6221C49.3398 32.6221 49.5107 32.542 49.6533 32.3818C49.7959 32.2217 49.9023 32.0049 49.9727 31.7314C50.0449 31.4561 50.0811 31.1396 50.0811 30.7822C50.0811 30.4307 50.0449 30.1211 49.9727 29.8535C49.9023 29.584 49.7959 29.3711 49.6533 29.2148Z" fill="#475967"/>
</svg>
