<svg width="60" height="60" viewBox="0 0 60 60" fill="none" xmlns="http://www.w3.org/2000/svg">
<rect width="59.8007" height="60" rx="4" fill="#F3F6FF"/>
<rect x="8.4" y="16.4" width="42.2" height="9.2" rx="1.6" fill="white" stroke="#D8DAE5" stroke-width="0.8"/>
<path d="M11 21C11 20.4477 11.4477 20 12 20H38C38.5523 20 39 20.4477 39 21C39 21.5523 38.5523 22 38 22H12C11.4477 22 11 21.5523 11 21Z" fill="#8F95B2"/>
<path d="M9 12C9 11.4477 9.44772 11 10 11H37C37.5523 11 38 11.4477 38 12C38 12.5523 37.5523 13 37 13H10C9.44772 13 9 12.5523 9 12Z" fill="#D8DAE5"/>
<line y1="-0.3" x2="2.7548" y2="-0.3" transform="matrix(-0.814043 -0.580805 0.528731 -0.848789 48.485 21.6)" stroke="#8F95B2" stroke-width="0.6"/>
<line y1="-0.3" x2="2.7548" y2="-0.3" transform="matrix(-0.814043 0.580805 -0.528731 -0.848789 46.2425 20)" stroke="#8F95B2" stroke-width="0.6"/>
<rect x="9" y="28" width="42" height="23" rx="3" fill="white"/>
<path d="M13 33.2143C13 32.5437 13.5437 32 14.2143 32H45.7857C46.4563 32 47 32.5437 47 33.2143C47 33.8849 46.4563 34.4286 45.7857 34.4286H14.2143C13.5437 34.4286 13 33.8849 13 33.2143Z" fill="#D8DAE5"/>
<path d="M13 46.0714C13 45.4008 13.5437 44.8571 14.2143 44.8571H45.7857C46.4563 44.8571 47 45.4008 47 46.0714C47 46.7421 46.4563 47.2857 45.7857 47.2857H14.2143C13.5437 47.2857 13 46.7421 13 46.0714Z" fill="#D8DAE5"/>
<path d="M13 39.6429C13 38.9722 13.5437 38.4286 14.2143 38.4286H45.7857C46.4563 38.4286 47 38.9722 47 39.6429C47 40.3135 46.4563 40.8571 45.7857 40.8571H14.2143C13.5437 40.8571 13 40.3135 13 39.6429Z" fill="#D8DAE5"/>
</svg>
