<svg width="60" height="60" viewBox="0 0 60 60" fill="none" xmlns="http://www.w3.org/2000/svg">
<rect width="59.6013" height="60" rx="4" fill="#F3F6FF"/>
<path d="M20.93 0H55.8C58.0091 0 59.8 1.79086 59.8 4V56C59.8 58.2091 58.0091 60 55.8 60H20.93V0Z" fill="#D9DFEF"/>
<rect x="16.9433" y="1" width="2.99" height="3" rx="1.495" fill="#C4C4C4"/>
<line y1="-0.1" x2="1.96364" y2="-0.1" transform="matrix(0.761342 0.648351 -0.753679 0.657243 17.6908 2.05188)" stroke="white" stroke-width="0.2"/>
<line y1="-0.1" x2="1.95351" y2="-0.1" transform="matrix(-0.738429 0.674331 -0.775842 -0.630927 19.1334 1.75)" stroke="white" stroke-width="0.2"/>
<path d="M22.9233 5C22.9233 4.44772 23.3711 4 23.9233 4H50.8267C51.379 4 51.8267 4.44772 51.8267 5C51.8267 5.55228 51.379 6 50.8267 6H23.9233C23.3711 6 22.9233 5.55228 22.9233 5Z" fill="white"/>
<path d="M22.9233 18C22.9233 17.4477 23.3711 17 23.9233 17H56.8067C57.359 17 57.8067 17.4477 57.8067 18C57.8067 18.5523 57.359 19 56.8067 19H23.9233C23.3711 19 22.9233 18.5523 22.9233 18Z" fill="#2954CC" fill-opacity="0.17"/>
<path d="M22.9233 22C22.9233 21.4477 23.3711 21 23.9233 21H56.8067C57.359 21 57.8067 21.4477 57.8067 22C57.8067 22.5523 57.359 23 56.8067 23H23.9233C23.3711 23 22.9233 22.5523 22.9233 22Z" fill="#2954CC" fill-opacity="0.17"/>
<path d="M22.9233 26C22.9233 25.4477 23.3711 25 23.9233 25H56.8067C57.359 25 57.8067 25.4477 57.8067 26C57.8067 26.5523 57.359 27 56.8067 27H23.9233C23.3711 27 22.9233 26.5523 22.9233 26Z" fill="#2954CC" fill-opacity="0.17"/>
<path d="M22.9233 30C22.9233 29.4477 23.3711 29 23.9233 29H56.8067C57.359 29 57.8067 29.4477 57.8067 30C57.8067 30.5523 57.359 31 56.8067 31H23.9233C23.3711 31 22.9233 30.5523 22.9233 30Z" fill="#2954CC" fill-opacity="0.17"/>
<path d="M22.9233 34C22.9233 33.4477 23.3711 33 23.9233 33H56.8067C57.359 33 57.8067 33.4477 57.8067 34C57.8067 34.5523 57.359 35 56.8067 35H23.9233C23.3711 35 22.9233 34.5523 22.9233 34Z" fill="#2954CC" fill-opacity="0.17"/>
<path d="M22.9233 38C22.9233 37.4477 23.3711 37 23.9233 37H56.8067C57.359 37 57.8067 37.4477 57.8067 38C57.8067 38.5523 57.359 39 56.8067 39H23.9233C23.3711 39 22.9233 38.5523 22.9233 38Z" fill="#2954CC" fill-opacity="0.17"/>
<rect x="24" y="53" width="12" height="4" rx="1" fill="#2954CC"/>
<rect x="25.8" y="54.4286" width="8.33333" height="1.14286" rx="0.571429" fill="white"/>
</svg>
