<svg width="60" height="60" viewBox="0 0 60 60" fill="none" xmlns="http://www.w3.org/2000/svg">
<rect width="59.8007" height="60" rx="4" fill="#F3F6FF"/>
<path d="M21 0H56C58.2091 0 60 1.79086 60 4V56C60 58.2091 58.2091 60 56 60H21V0Z" fill="#D8DAE5"/>
<rect x="17" y="1" width="3" height="3" rx="1.5" fill="#C4C4C4"/>
<line y1="-0.1" x2="1.96744" y2="-0.1" transform="matrix(0.762409 0.647096 -0.754765 0.655996 17.75 2.05188)" stroke="white" stroke-width="0.2"/>
<line y1="-0.1" x2="1.95707" y2="-0.1" transform="matrix(-0.739549 0.673102 -0.776872 -0.629659 19.1974 1.75)" stroke="white" stroke-width="0.2"/>
<path d="M23 5C23 4.44772 23.4477 4 24 4H51C51.5523 4 52 4.44772 52 5C52 5.55228 51.5523 6 51 6H24C23.4477 6 23 5.55228 23 5Z" fill="white"/>
<path d="M23 18C23 17.4477 23.4477 17 24 17H57C57.5523 17 58 17.4477 58 18C58 18.5523 57.5523 19 57 19H24C23.4477 19 23 18.5523 23 18Z" fill="white"/>
<path d="M23 22C23 21.4477 23.4477 21 24 21H57C57.5523 21 58 21.4477 58 22C58 22.5523 57.5523 23 57 23H24C23.4477 23 23 22.5523 23 22Z" fill="white"/>
<path d="M23 26C23 25.4477 23.4477 25 24 25H57C57.5523 25 58 25.4477 58 26C58 26.5523 57.5523 27 57 27H24C23.4477 27 23 26.5523 23 26Z" fill="white"/>
<path d="M23 30C23 29.4477 23.4477 29 24 29H57C57.5523 29 58 29.4477 58 30C58 30.5523 57.5523 31 57 31H24C23.4477 31 23 30.5523 23 30Z" fill="white"/>
<path d="M23 34C23 33.4477 23.4477 33 24 33H57C57.5523 33 58 33.4477 58 34C58 34.5523 57.5523 35 57 35H24C23.4477 35 23 34.5523 23 34Z" fill="white"/>
<path d="M23 38C23 37.4477 23.4477 37 24 37H57C57.5523 37 58 37.4477 58 38C58 38.5523 57.5523 39 57 39H24C23.4477 39 23 38.5523 23 38Z" fill="white"/>
</svg>
