<svg width="60" height="60" viewBox="0 0 60 60" fill="none" xmlns="http://www.w3.org/2000/svg">
<rect width="59.8007" height="60" rx="4" fill="#F3F6FF"/>
<rect x="6" y="13" width="49" height="33" rx="2" fill="white"/>
<path d="M6 15C6 13.8954 6.89543 13 8 13H53C54.1046 13 55 13.8954 55 15V19H6V15Z" fill="#8F95B2"/>
<rect x="9" y="24" width="17" height="2" rx="1" fill="#8F95B2"/>
<rect x="28" y="24" width="10" height="2" rx="1" fill="#8F95B2"/>
<rect x="41" y="24" width="10" height="2" rx="1" fill="#8F95B2"/>
<rect x="9" y="31" width="17" height="2" rx="1" fill="#8F95B2"/>
<rect x="28" y="31" width="10" height="2" rx="1" fill="#8F95B2"/>
<rect x="41" y="31" width="10" height="2" rx="1" fill="#8F95B2"/>
<rect x="9" y="38" width="17" height="2" rx="1" fill="#8F95B2"/>
<rect x="28" y="38" width="10" height="2" rx="1" fill="#8F95B2"/>
<rect x="41" y="38" width="10" height="2" rx="1" fill="#8F95B2"/>
</svg>
