<svg width="60" height="60" viewBox="0 0 60 60" fill="none" xmlns="http://www.w3.org/2000/svg">
<rect width="59.8007" height="60" rx="4" fill="#F3F6FF"/>
<rect x="9.4" y="24.4" width="42.2" height="20.2" rx="1.6" fill="white" stroke="#D6E0FF" stroke-width="0.8"/>
<path d="M13 29C13 28.4477 13.4477 28 14 28H40C40.5523 28 41 28.4477 41 29C41 29.5523 40.5523 30 40 30H14C13.4477 30 13 29.5523 13 29Z" fill="#52BD95"/>
<path d="M9 20C9 19.4477 9.44772 19 10 19H50C50.5523 19 51 19.4477 51 20C51 20.5523 50.5523 21 50 21H10C9.44772 21 9 20.5523 9 20Z" fill="#52BD95"/>
<path d="M9 16C9 15.4477 9.44772 15 10 15H37C37.5523 15 38 15.4477 38 16C38 16.5523 37.5523 17 37 17H10C9.44772 17 9 16.5523 9 16Z" fill="#52BD95"/>
</svg>
