<svg width="60" height="60" viewBox="0 0 60 60" fill="none" xmlns="http://www.w3.org/2000/svg">
<rect width="59.8007" height="60" rx="4" fill="#F3F6FF"/>
<rect x="9.4" y="15.4" width="42.2" height="9.2" rx="1.6" fill="white" stroke="#D8DAE5" stroke-width="0.8"/>
<path d="M22 20C22 19.4477 22.4477 19 23 19H49C49.5523 19 50 19.4477 50 20C50 20.5523 49.5523 21 49 21H23C22.4477 21 22 20.5523 22 20Z" fill="#8F95B2"/>
<path d="M9 11C9 10.4477 9.44772 10 10 10H50C50.5523 10 51 10.4477 51 11C51 11.5523 50.5523 12 50 12H10C9.44772 12 9 11.5523 9 11Z" fill="#D8DAE5"/>
<path d="M9 7C9 6.44772 9.44772 6 10 6H37C37.5523 6 38 6.44772 38 7C38 7.55228 37.5523 8 37 8H10C9.44772 8 9 7.55228 9 7Z" fill="#D8DAE5"/>
<circle cx="14.3" cy="20.3" r="2" stroke="#8F95B2" stroke-width="0.6"/>
<line x1="14.2268" y1="18.6518" x2="14.235" y2="20.3384" stroke="#8F95B2" stroke-width="0.4"/>
<line x1="15.6808" y1="20.5" x2="14.0401" y2="20.5066" stroke="#8F95B2" stroke-width="0.4"/>
<rect x="10" y="28" width="42" height="23" rx="3" fill="white"/>
<path d="M14 33.2143C14 32.5437 14.5437 32 15.2143 32H46.7857C47.4563 32 48 32.5437 48 33.2143C48 33.8849 47.4563 34.4286 46.7857 34.4286H15.2143C14.5437 34.4286 14 33.8849 14 33.2143Z" fill="#D8DAE5"/>
<path d="M14 46.0714C14 45.4008 14.5437 44.8571 15.2143 44.8571H46.7857C47.4563 44.8571 48 45.4008 48 46.0714C48 46.7421 47.4563 47.2857 46.7857 47.2857H15.2143C14.5437 47.2857 14 46.7421 14 46.0714Z" fill="#D8DAE5"/>
<path d="M14 39.6429C14 38.9722 14.5437 38.4286 15.2143 38.4286H46.7857C47.4563 38.4286 48 38.9722 48 39.6429C48 40.3135 47.4563 40.8571 46.7857 40.8571H15.2143C14.5437 40.8571 14 40.3135 14 39.6429Z" fill="#D8DAE5"/>
</svg>
