<svg width="60" height="60" viewBox="0 0 60 60" fill="none" xmlns="http://www.w3.org/2000/svg">
<rect width="59.8007" height="60" rx="4" fill="#F3F6FF"/>
<rect x="10" y="38" width="20" height="7" rx="1" fill="#FF9900"/>
<rect x="13" y="40.5" width="13.8889" height="2" rx="1" fill="white"/>
<path d="M7 13C7 11.3431 8.34315 10 10 10H60V26H10C8.34315 26 7 24.6569 7 23V13Z" fill="#F8E7CF"/>
<path d="M21 18C21 17.4477 21.4477 17 22 17H60V19H22C21.4477 19 21 18.5523 21 18Z" fill="#FF9900"/>
<path d="M7 12C7 10.8954 7.89543 10 9 10V26C7.89543 26 7 25.1046 7 24V12Z" fill="#FF9900"/>
<circle cx="15" cy="18" r="3" fill="#FF9900"/>
</svg>
