<svg width="60" height="60" viewBox="0 0 60 60" fill="none" xmlns="http://www.w3.org/2000/svg">
<rect width="59.8007" height="60" rx="4" fill="#F3F6FF"/>
<path d="M27.8398 29.6035C26.6035 26.0117 25.9209 23.9932 25.792 23.5479C25.792 23.5479 25.0801 25.5664 23.6562 29.6035H27.8398ZM29.8525 35L28.332 30.8779H23.1465L21.5732 35H20.0264L25.0186 21.9746H26.5742L31.417 35H29.8525ZM35.4863 34.0156C36.1836 34.0156 36.7959 33.8252 37.3232 33.4443C37.8564 33.0576 38.1992 32.5391 38.3516 31.8887V30.2627C38.3223 30.2627 38.1436 30.2773 37.8154 30.3066C37.4932 30.3359 37.2822 30.3535 37.1826 30.3594C35.9111 30.4707 35.0234 30.6787 34.5195 30.9834C34.0215 31.2881 33.7725 31.7773 33.7725 32.4512C33.7725 32.9668 33.9248 33.3564 34.2295 33.6201C34.5342 33.8838 34.9531 34.0156 35.4863 34.0156ZM38.6768 35C38.5889 34.625 38.5039 34.2207 38.4219 33.7871C37.8887 34.3203 37.3877 34.6895 36.9189 34.8945C36.4502 35.0996 35.8994 35.2021 35.2666 35.2021C34.3643 35.2021 33.6377 34.9678 33.0869 34.499C32.542 34.0244 32.2695 33.3447 32.2695 32.46C32.2695 31.4756 32.6416 30.7461 33.3857 30.2715C34.1357 29.7969 35.2139 29.501 36.6201 29.3838C36.8135 29.3662 37.1035 29.3428 37.4902 29.3135C37.8828 29.2783 38.1758 29.252 38.3691 29.2344V28.3818C38.3691 27.7021 38.2109 27.1982 37.8945 26.8701C37.5781 26.542 37.0801 26.3779 36.4004 26.3779C35.4512 26.3779 34.4932 26.6123 33.5264 27.0811C33.4971 27.0107 33.4209 26.8086 33.2979 26.4746C33.1748 26.1348 33.1104 25.959 33.1045 25.9473C33.5322 25.707 34.0391 25.5166 34.625 25.376C35.2168 25.2295 35.8174 25.1562 36.4268 25.1562C37.6279 25.1562 38.4922 25.4199 39.0195 25.9473C39.5527 26.4688 39.8193 27.3594 39.8193 28.6191V35H38.6768Z" fill="#2954CC"/>
<line x1="19" y1="37.5" x2="42" y2="37.5" stroke="#2954CC"/>
<line x1="18.5" y1="36" x2="18.5" y2="39" stroke="#2954CC"/>
<line x1="42.5" y1="36" x2="42.5" y2="39" stroke="#2954CC"/>
</svg>
