<svg width="64" height="64" viewBox="0 0 64 64" fill="none" xmlns="http://www.w3.org/2000/svg">
<path d="M15.4229 60.0686V10.3314H40.9346C40.9346 10.3314 57.4422 11.7943 57.4422 30.08C57.4422 52.0229 31.1801 48.3657 31.1801 48.3657V56.4114C31.1801 58.4314 29.5006 60.0686 27.4284 60.0686H15.4229Z" fill="#2952cc"/>
<path d="M27.6599 60.1C27.6599 60.1 28.8734 57.3486 26.8597 55.3857C26.209 54.7714 25.5584 54.3114 24.5999 53.7486C23.659 53.1829 22.6302 52.46 21.8154 51.6686C20.2063 50.0829 18.814 48.3543 17.964 46.2914C17.7852 45.8514 17.6211 45.4286 17.4775 45.0057C17.2606 44.46 17.0613 43.9486 16.7887 43.4371C16.5542 42.9971 16.1233 42.5543 15.798 42.1486C16.6275 42.8 16.6451 42.24 17.3485 43.0686C18.0373 43.8771 18.5971 44.8486 19.157 45.6771C19.2302 45.7829 19.283 45.8714 19.3739 45.9571C20.4583 47.4371 21.959 48.6371 23.4949 49.6057C23.5682 49.64 23.6239 49.6943 23.6942 49.7114C24.4534 50.1686 25.2125 50.4857 26.0977 50.7857C27.0561 51.0857 28.2871 51.5971 29.3159 52.2314C29.8787 52.5657 30.3828 52.92 30.8723 53.2714L31.1801 57.8743L28.1787 60.0686L27.6599 60.1Z" fill="#2952cc"/>
<path d="M15.4229 59.3371L27.4284 60.0686L28.0116 58L26.678 54.9486L23.3337 52.9171L21.2791 51.1257L18.4242 46.9029L17.6739 44.7086L15.4229 41.7829V59.3371Z" fill="#2952cc"/>
<path d="M16.1116 22.76L15.4229 10.3314H22.5922L34.9318 21.3029L43.7484 34.1029L52.6323 42.9257L46.4801 46.7371L32.6808 37.3943L22.176 29.3486L16.1116 22.76Z" fill="#FFD300"/>
<path d="M24.0518 10.6971H31.5552C31.5552 10.6971 40.9346 13.9886 42.4352 18.3771C43.9359 22.7657 55.1911 31.5429 55.1911 31.5429L56.8911 35.2L52.9401 41.7829L42.4352 33.0057L37.9478 26.8086C37.9478 26.8086 32.6808 20.3171 31.1801 20.0771C29.6794 19.84 19.8956 12.5257 22.9116 10.3314L24.0518 10.6971Z" fill="#FFD300"/>
<path d="M15.4229 31.1257L16.2758 20.7771L21.4256 25.6914C21.4256 25.6914 29.6794 30.08 28.9291 31.5429C28.1787 33.0057 36.4325 40.32 36.4325 40.32L45.2666 47.1629L34.9318 48.3657L25.9277 42.5143L21.836 35.5657L18.4242 32.2743L15.798 31.1257H15.4229Z" fill="#FFD300"/>
<path d="M56.812 28.8743C55.8008 28.1 54.6254 27.3429 53.3944 26.8143C52.1663 26.2857 51.117 26.02 50.2142 25.58C50.0677 25.5086 49.924 25.4371 49.7628 25.3514C48.098 24.4514 46.4361 23.1114 45.2227 21.6143C45.0966 21.4571 44.9882 21.2971 44.8621 21.12C44.3551 20.38 43.8685 19.5514 43.2706 18.7943C42.529 17.86 41.8549 17.0686 40.9521 16.3629C41.6732 17.2429 42.1334 18.1971 42.6199 19.1829C42.784 19.5171 42.9277 19.8686 43.0537 20.2229C43.3263 20.9114 43.5608 21.6314 43.9037 22.3714C44.4284 23.4829 45.1318 24.5057 45.8909 25.4371C46.6706 26.3714 47.5177 27.2886 48.5494 28.0829C49.5987 28.9086 50.7359 29.4743 51.5156 30.0743C52.3275 30.6371 52.9782 31.3086 53.6289 32.1L57.064 36.2971L56.812 28.8743Z" fill="#2952cc"/>
<path d="M42.1041 47.5686C41.978 47.3571 41.852 47.1457 41.7259 46.9514C41.1632 46.0543 40.7118 45.4543 40.0084 44.68C39.3577 43.9371 38.6865 43.34 37.857 42.7943C37.0246 42.2629 35.8492 41.6114 34.9084 40.8C33.9499 39.9914 33.1556 39.1086 32.4316 38.2114C31.6901 37.2943 31.0218 36.2714 30.5528 35.1971C30.2627 34.5457 30.0458 33.9114 29.7937 33.2943C29.6472 32.9057 29.4859 32.52 29.2866 32.1486C28.3692 30.5914 28.0908 30.1829 27.4606 29.4171C28.3458 30.1029 29.1782 30.88 29.9022 31.76C30.5528 32.5343 31.057 33.4343 31.5816 34.1914C31.6549 34.2971 31.7282 34.4029 31.7985 34.5086C33.0472 36.1314 34.7999 37.5229 36.5351 38.4743C36.5556 38.4743 36.5556 38.4914 36.5732 38.4914C37.4584 38.9686 38.3435 39.2314 39.5189 39.6714C40.6942 40.1143 41.8872 40.8 42.9013 41.5229C43.8949 42.1943 44.9442 43.2314 45.6828 44.1314C46.2075 44.7314 46.697 45.3114 47.1484 45.9457" fill="#2952cc"/>
<path d="M52.4857 38.2657C51.6826 37.4371 50.8649 36.7771 49.9797 36.12C49.0799 35.4771 48.0364 34.9143 47.0223 34.5371C46.1225 34.1943 45.3839 33.96 44.6921 33.5971C44.5983 33.5657 44.5163 33.52 44.4371 33.4743C42.8925 32.5971 41.3361 31.3429 40.2751 29.8857C40.193 29.7771 40.1285 29.6657 40.0494 29.5429C39.6156 28.8686 39.1642 28.1 38.6337 27.4429C38.0064 26.66 36.453 24.84 35.6821 24.2286C36.3064 24.98 37.514 26.8371 37.9478 27.6829C38.1413 28.0429 38.4901 28.4771 38.6337 28.8514C38.8271 29.3543 39.0206 29.8857 39.2463 30.4343C39.6625 31.3886 40.2575 32.2686 40.8994 33.0657C41.5442 33.8657 42.233 34.6343 43.0683 35.3371C43.9066 36.0571 44.9325 36.6057 45.6887 37.0771C46.4595 37.5629 47.0545 38.08 47.6642 38.72C48.2445 39.3486 48.8395 40.0686 49.2557 40.7571C49.7218 41.4629 49.9621 42.0886 50.3314 43.0143L50.8297 44.0943L54.4759 40.9143C53.9923 40.1457 53.2097 38.9857 52.4857 38.2657Z" fill="#2952cc"/>
<path d="M31.5553 48.7314C30.6144 48.1686 28.0351 46 27.2232 45.2057C25.614 43.62 24.2218 41.8943 23.3718 39.8314C23.2458 39.5314 23.1373 39.2314 23.0289 38.9514C22.7768 38.2629 22.5218 37.6114 22.1965 36.9771C21.8359 36.3057 21.4021 35.6543 20.9303 35.0371L20.8775 34.9857C20.7515 34.7914 20.4437 34.2971 20.3001 34.1029C21.1296 34.7543 22.0528 35.7771 22.7563 36.6057C23.4451 37.4171 24.0049 38.3857 24.5647 39.2143C24.7465 39.4971 24.9634 39.76 25.1803 40.0057C26.2266 41.2571 27.5485 42.28 28.9027 43.1429C29.1371 43.2857 29.3921 43.4257 29.6266 43.5486C30.2246 43.8486 30.8371 44.0943 31.5084 44.3257C32.4668 44.6257 33.6949 45.1343 34.7266 45.7686C35.6294 46.3171 38.534 48.8286 38.3084 48.7314" fill="#2952cc"/>
<path d="M40.9346 9.6H15.4228C15.0066 9.6 14.6725 9.92571 14.6725 10.3314V60.0686C14.6725 60.4743 15.0066 60.8 15.4228 60.8H27.4283C29.9109 60.8 31.9304 58.8314 31.9304 56.4114V49.1857C35.0051 49.4714 45.5187 49.96 52.3304 44.2C56.2199 40.9114 58.1925 36.1629 58.1925 30.08C58.1925 11.3429 41.172 9.61714 40.9346 9.6ZM54.1858 39.7943C53.7666 39.1886 53.2537 38.5086 52.7613 38.0143C51.8908 37.1171 51.0202 36.4343 50.2025 35.8257C49.2646 35.1543 48.183 34.5771 47.1601 34.1971C46.9256 34.1057 46.6999 34.0229 46.483 33.9429C45.8821 33.7229 45.3604 33.5314 44.8123 33.2514C44.7566 33.2314 44.698 33.1971 44.6247 33.1571C42.9628 32.2114 41.5266 30.9743 40.5799 29.6743C40.5271 29.6 40.4802 29.5286 40.4333 29.4514L40.0758 28.8857C39.7211 28.3229 39.3547 27.7429 38.9297 27.2171C38.3787 26.5257 37.6518 25.6371 37.0011 24.9686C34.2782 21.3543 30.0516 18.8971 29.8758 18.7971C28.9877 18.26 28.1611 17.7057 27.4196 17.1486C23.8173 14.44 22.8794 12.1571 22.6361 11.06H32.2265C32.7833 11.2857 38.5721 13.6886 41.1221 17.2171C41.5471 17.8514 41.8783 18.52 42.2213 19.2171L42.2828 19.3371C42.4294 19.6429 42.5701 19.98 42.7049 20.3543C42.7928 20.5771 42.8778 20.8 42.9628 21.0314C43.1416 21.5114 43.3263 22.0114 43.5637 22.5257C44.0473 23.5486 44.7127 24.5743 45.6008 25.6686C46.2602 26.46 47.163 27.48 48.3149 28.3657C48.9128 28.8371 49.5401 29.2286 50.097 29.5743C50.5366 29.8457 50.9499 30.1029 51.2987 30.3714C51.9963 30.8543 52.6264 31.4571 53.3621 32.3543L56.1115 35.1286C55.6952 36.8514 55.0533 38.4086 54.1858 39.7943ZM53.9249 31.8714C53.1658 30.9457 52.4887 30.3 51.7471 29.7857C51.3866 29.5086 50.9558 29.24 50.4985 28.9571C49.9358 28.6057 49.3496 28.2429 48.7839 27.7943C47.6847 26.9486 46.8171 25.9686 46.187 25.2114C45.3399 24.1657 44.7039 23.1886 44.2466 22.2229C44.0209 21.7371 43.8421 21.2514 43.6663 20.78C43.5813 20.5486 43.4963 20.3171 43.4083 20.1C43.2706 19.7143 43.1211 19.3543 42.9599 19.0229L42.9247 18.9543C42.9423 18.9743 42.957 18.9971 42.9746 19.0171C43.3644 19.5114 43.7102 20.0457 44.0473 20.56C44.2173 20.82 44.3815 21.0771 44.5573 21.3286L44.6423 21.4543C44.739 21.5886 44.827 21.7114 44.9296 21.84C46.1313 23.3257 47.8254 24.72 49.5782 25.6686C49.7423 25.7571 49.8859 25.8286 50.0471 25.9057C50.5454 26.1486 51.0847 26.34 51.6563 26.54C52.1604 26.72 52.6792 26.9029 53.242 27.1457C54.3147 27.6057 55.4344 28.2829 56.5804 29.16C56.6068 29.18 56.6361 29.1914 56.6654 29.2029C56.6742 29.4943 56.6918 29.7771 56.6918 30.0771C56.6918 31.5657 56.557 32.9629 56.3078 34.2714L53.9249 31.8714ZM56.6302 28.2886C55.578 27.52 54.5433 26.9057 53.5468 26.48C52.9606 26.2257 52.4271 26.0371 51.9113 25.8571C51.3632 25.66 50.8444 25.4771 50.3666 25.2457C50.2318 25.18 50.097 25.1143 49.9446 25.0314C48.2739 24.1286 46.6618 22.8 45.5187 21.3886C45.4278 21.2743 45.3487 21.16 45.2608 21.0371L45.1728 20.9171C45.0087 20.6771 44.8446 20.4257 44.6804 20.1714C44.3346 19.64 43.9799 19.0943 43.5696 18.5714C42.869 17.6914 42.1597 16.8371 41.1866 16.0771C41.1749 16.0686 41.1602 16.0657 41.1485 16.0571C39.1115 13.7143 35.9401 11.9686 34.0349 11.06H40.8642C41.4885 11.1143 55.6249 12.56 56.6302 28.2886ZM21.8652 11.0629C22.0851 12.2657 23.0289 14.7743 26.9594 17.7286C27.7244 18.3 28.5715 18.8714 29.4889 19.4229C29.527 19.4457 33.0706 21.5086 35.6909 24.5343C35.6733 24.6343 37.2151 27.0686 37.6166 27.8486C37.6958 28 37.8042 28.1629 37.9097 28.3286C38.0563 28.5543 38.2087 28.7857 38.2849 28.98L38.4637 29.4514C38.5985 29.8143 38.7421 30.1886 38.9004 30.5771C39.2844 31.4543 39.8413 32.3429 40.6033 33.2914C41.3859 34.2629 42.0718 34.9771 42.8221 35.6114C43.4933 36.1886 44.2613 36.6486 44.9413 37.0543C45.1318 37.1686 45.3164 37.28 45.4865 37.3829C46.1782 37.82 46.7468 38.2943 47.3858 38.9657C48.0482 39.6829 48.5816 40.3657 48.9421 40.9543C49.3642 41.5943 49.5899 42.16 49.9299 43.0143L50.3227 43.88C49.3818 44.5486 48.3765 45.1114 47.3359 45.5771C46.8787 44.9514 46.3921 44.3771 45.9759 43.9029C45.1054 42.8457 44.0356 41.8429 43.1211 41.2286C42.3151 40.6543 41.0606 39.86 39.6537 39.3314C39.3518 39.22 39.0704 39.1171 38.8008 39.02C38.0416 38.7486 37.388 38.5143 36.752 38.1714C36.7461 38.1686 36.7373 38.1629 36.7285 38.16C36.7227 38.1571 36.7168 38.1543 36.7139 38.1514C34.879 37.1457 33.2406 35.7743 32.1121 34.3057L31.8952 33.9886C31.7252 33.7429 31.5582 33.4829 31.3882 33.22C31.0218 32.6543 30.6466 32.0686 30.1952 31.5314C29.5035 30.6886 27.5632 29.0629 27.4928 29.0571C25.3151 27.3086 23.2165 26.16 23.108 26.1C20.4759 24.6771 17.3339 21.3857 16.1732 20.1171V11.0629H21.8652ZM42.2975 47.1714C42.2125 47.0314 42.1275 46.8886 42.0454 46.7629C41.468 45.8371 41.0078 45.2286 40.2927 44.44C39.598 43.6514 38.8916 43.0314 38.0621 42.4857C37.8716 42.3657 37.6665 42.24 37.4496 42.1057C36.7051 41.6514 35.8639 41.1343 35.1546 40.5257C34.3339 39.8314 33.563 39.0229 32.7277 37.9829C31.9363 37.0057 31.3208 36.0171 30.8987 35.0514C30.7258 34.6629 30.5792 34.2829 30.4356 33.9086C30.3389 33.6543 30.2421 33.4057 30.1454 33.1686C29.9842 32.7343 29.8259 32.3743 29.653 32.04C30.0575 32.5314 30.4121 33.08 30.7521 33.6086C30.928 33.88 31.098 34.1457 31.2709 34.3971L31.4996 34.7286C32.7042 36.2943 34.4277 37.7371 36.3533 38.7943C36.3621 38.8 36.3709 38.8029 36.3797 38.8086C36.3856 38.8114 36.3915 38.8143 36.3973 38.8171C37.0802 39.1829 37.7573 39.4257 38.5428 39.7086C38.8096 39.8029 39.088 39.9029 39.384 40.0171C40.4216 40.4029 41.5911 41.0457 42.6873 41.8257C43.552 42.4086 44.5632 43.3571 45.3985 44.3714C45.7825 44.8057 46.2163 45.3286 46.6296 45.8829C45.208 46.46 43.7396 46.8743 42.2975 47.1714ZM37.8482 47.7657C36.7549 46.7486 34.9523 45.4771 34.9259 45.46C33.9909 44.8857 32.757 44.3314 31.6315 43.98C30.9251 43.74 30.3418 43.5 29.8054 43.2286C29.5739 43.1086 29.3277 42.9686 29.1078 42.84C27.5602 41.8543 26.3702 40.8514 25.4646 39.7714C25.2887 39.5714 25.0659 39.3057 24.8783 39.0143C24.7201 38.78 24.5618 38.5343 24.4006 38.2857C23.9844 37.64 23.5535 36.9714 23.0465 36.3743C22.1496 35.3229 21.408 34.56 20.7778 34.0257C20.0744 33.24 17.7413 30.7571 16.1732 30.7657V21.2114C17.6211 22.7486 20.3382 25.44 22.7416 26.7429C22.7709 26.76 25.1392 28.0543 27.4166 29.9543C27.8885 30.5514 28.1963 31.0286 28.9554 32.3171C29.1225 32.6343 29.2778 32.9829 29.4449 33.4286C29.5416 33.6714 29.6354 33.9171 29.7321 34.1657C29.8787 34.5514 30.0311 34.9429 30.207 35.34C30.6554 36.3657 31.3061 37.4086 32.1356 38.4371C33.0032 39.5114 33.8063 40.3514 34.6592 41.0743C35.4125 41.7229 36.2801 42.2571 37.048 42.7257C37.262 42.8571 37.4642 42.9829 37.6459 43.0971C38.4227 43.6057 39.0646 44.1686 39.727 44.92C40.4128 45.6771 40.8525 46.26 41.4065 47.1486C41.4416 47.2029 41.4797 47.2657 41.5149 47.3229C40.2428 47.5486 39.0001 47.6886 37.8482 47.7657ZM30.4297 52.5086C30.1425 52.3143 29.8406 52.1171 29.5182 51.9229C28.589 51.3514 27.3521 50.7943 26.2237 50.4429C25.2565 50.1143 24.5589 49.8057 23.8935 49.4C23.8613 49.38 23.8173 49.3543 23.7792 49.3457C23.744 49.3229 23.7059 49.3 23.7001 49.3C21.9268 48.18 20.6137 47.02 19.6406 45.7C19.5908 45.6514 19.5527 45.5971 19.4706 45.4771C19.3123 45.2429 19.154 44.9971 18.9928 44.7486C18.5766 44.1029 18.1458 43.4343 17.6387 42.8343C17.2078 42.3257 16.9558 42.24 16.6509 42.1743C16.519 42.1457 16.3901 42.1114 16.1732 41.9629V31.4943C17.0847 31.48 18.7994 32.9914 19.9454 34.2143C19.9571 34.2514 19.9718 34.2857 19.9952 34.3171C20.0978 34.4514 20.2796 34.74 20.4202 34.96L20.5609 35.1829C20.5756 35.2029 20.5932 35.2257 20.6108 35.2429L20.6283 35.2571C21.1149 35.8943 21.5311 36.5314 21.8623 37.14C22.1583 37.7229 22.3958 38.3114 22.6771 39.08L22.7651 39.3114C22.8471 39.5257 22.9321 39.7486 23.023 39.9686C23.7909 41.8286 25.0396 43.5743 26.9565 45.4657C27.572 46.0629 29.2309 47.4857 30.4297 48.3886V52.5086ZM16.1732 43.1829C16.2816 43.3286 16.3813 43.4686 16.4575 43.6057C16.7008 44.0686 16.8883 44.54 17.0877 45.0371L17.1199 45.1229C17.2665 45.5514 17.4335 45.9829 17.6182 46.4314C18.3832 48.2914 19.6318 50.0371 21.5516 51.9286C22.4808 52.8343 23.6151 53.5886 24.4065 54.06C25.3883 54.64 26.0009 55.0857 26.593 55.6457C27.868 56.8886 27.7244 58.4686 27.5133 59.3286C27.484 59.3286 27.4577 59.3371 27.4283 59.3371H16.1732V43.1829ZM28.3077 59.1943C28.504 58.1371 28.507 56.4771 27.1206 55.1257C26.4787 54.5171 25.828 54.0429 24.7933 53.4371C24.0401 52.9829 22.9585 52.2657 22.0821 51.4114C20.2385 49.5943 19.0397 47.9229 18.3128 46.1571C18.134 45.7229 17.9758 45.3057 17.8263 44.8743L17.7852 44.7714C17.6182 44.3514 17.4599 43.9543 17.2665 43.5514C17.6592 44.0514 18.0139 44.6029 18.3597 45.1371C18.5239 45.3914 18.6851 45.64 18.8756 45.9229C18.9401 46.0171 19.0046 46.1143 19.069 46.1686C20.0568 47.52 21.4373 48.7429 23.2927 49.9114C23.3044 49.92 23.3542 49.9486 23.3659 49.9543C23.407 49.9829 23.4627 50.0171 23.5359 50.0457C24.2423 50.4657 24.9751 50.7914 25.9863 51.1343C27.0678 51.4714 28.2402 52 29.1225 52.5429C29.6002 52.8257 30.0282 53.1229 30.4297 53.4086V56.4114C30.4297 57.7257 29.5328 58.8257 28.3077 59.1943ZM31.2856 47.6429C31.1156 47.6171 30.9515 47.6657 30.8049 47.7514C29.6852 46.8943 28.123 45.5686 27.4899 44.9486C25.6463 43.1343 24.4475 41.4629 23.7206 39.6943C23.6297 39.48 23.5477 39.2657 23.4715 39.0571L23.3835 38.8286C23.1842 38.2914 22.9556 37.6829 22.6654 37.08C23.0611 37.5829 23.4187 38.1343 23.7646 38.6714C23.9316 38.9286 24.0928 39.1771 24.2482 39.4086C24.4563 39.7343 24.7054 40.0286 24.8901 40.24C25.8397 41.3743 27.0854 42.4229 28.7092 43.4571C28.9496 43.6 29.2104 43.7457 29.4566 43.8743C30.0311 44.1657 30.6437 44.4171 31.394 44.6743C32.4727 45.0114 33.6421 45.5371 34.5302 46.0829C34.9758 46.3514 35.9518 47.14 36.7578 47.8229C33.607 47.9457 31.3383 47.6486 31.2856 47.6429ZM51.3515 43.0914C51.2166 43.2057 51.073 43.3143 50.9352 43.4229L50.6832 42.88L50.6304 42.7486C50.2846 41.8829 50.0354 41.26 49.5811 40.5714C49.2001 39.9429 48.649 39.2371 47.9427 38.4714C47.2539 37.7486 46.6413 37.2371 45.8909 36.7657C45.718 36.66 45.5304 36.5457 45.3311 36.4286C44.6804 36.04 43.9418 35.5971 43.3146 35.06C42.5994 34.4571 41.9458 33.7714 41.1954 32.84C40.4744 31.94 39.9468 31.1057 39.5951 30.2971C39.4397 29.92 39.299 29.5514 39.1671 29.1971L38.9854 28.7229C38.8858 28.46 38.7128 28.1943 38.5428 27.9371C38.537 27.9257 38.5282 27.9143 38.5223 27.9029C38.8506 28.3371 39.1466 28.8086 39.4368 29.2714L39.7944 29.8343C39.853 29.9257 39.9058 30.0114 39.9673 30.0971C40.9756 31.4829 42.4968 32.7943 44.2437 33.7857C44.3346 33.84 44.4401 33.9 44.5163 33.9229C45.0497 34.2 45.592 34.3971 46.2192 34.6286C46.4332 34.7086 46.6559 34.7886 46.8904 34.88C47.8547 35.24 48.8747 35.7829 49.754 36.4114C50.5396 36.9971 51.3808 37.6571 52.219 38.5229C52.7554 39.0571 53.324 39.84 53.749 40.48C53.0661 41.44 52.2689 42.3143 51.3515 43.0914Z" fill="#1F212B"/>
</svg>
