<?xml version="1.0" encoding="UTF-8"?>
<svg xmlns="http://www.w3.org/2000/svg" xmlns:xlink="http://www.w3.org/1999/xlink" viewBox="0 0 100 100" width="100px" height="100px">
<g id="surface8142149">
<path style=" stroke:none;fill-rule:nonzero;fill:rgb(1.960784%,41.176471%,80.784315%);fill-opacity:1;" d="M 23.925781 84 L 23.925781 16 L 57.925781 16 C 57.925781 16 79.925781 18 79.925781 43 C 79.925781 73 44.925781 68 44.925781 68 L 44.925781 79 C 44.925781 81.761719 42.6875 84 39.925781 84 Z M 23.925781 84 "/>
<path style=" stroke:none;fill-rule:nonzero;fill:rgb(1.960784%,41.176471%,80.784315%);fill-opacity:1;" d="M 40.234375 84.042969 C 40.234375 84.042969 41.851562 80.28125 39.167969 77.597656 C 38.300781 76.757812 37.433594 76.128906 36.15625 75.359375 C 34.902344 74.585938 33.53125 73.597656 32.445312 72.515625 C 30.300781 70.347656 28.445312 67.984375 27.3125 65.164062 C 27.074219 64.5625 26.855469 63.984375 26.664062 63.40625 C 26.375 62.660156 26.109375 61.960938 25.746094 61.261719 C 25.433594 60.660156 24.859375 60.054688 24.425781 59.5 C 25.53125 60.390625 25.554688 59.625 26.492188 60.757812 C 27.410156 61.863281 28.15625 63.191406 28.902344 64.324219 C 29 64.46875 29.070312 64.589844 29.191406 64.707031 C 30.636719 66.730469 32.636719 68.371094 34.683594 69.695312 C 34.78125 69.742188 34.855469 69.816406 34.949219 69.839844 C 35.960938 70.464844 36.972656 70.898438 38.152344 71.308594 C 39.429688 71.71875 41.070312 72.417969 42.441406 73.285156 C 43.191406 73.742188 43.863281 74.226562 44.515625 74.707031 L 44.925781 81 L 40.925781 84 L 40.234375 84.042969 "/>
<path style=" stroke:none;fill-rule:nonzero;fill:rgb(1.960784%,41.176471%,80.784315%);fill-opacity:1;" d="M 23.925781 83 L 39.925781 84 L 40.703125 81.171875 L 38.925781 77 L 34.46875 74.222656 L 31.730469 71.773438 L 27.925781 66 L 26.925781 63 L 23.925781 59 Z M 23.925781 83 "/>
<path style=" stroke:none;fill-rule:nonzero;fill:rgb(100%,82.745099%,0%);fill-opacity:1;" d="M 24.84375 32.992188 L 23.925781 16 L 33.480469 16 L 49.925781 31 L 61.675781 48.5 L 73.515625 60.5625 L 65.316406 65.773438 L 46.925781 53 L 32.925781 42 Z M 24.84375 32.992188 "/>
<path style=" stroke:none;fill-rule:nonzero;fill:rgb(100%,82.745099%,0%);fill-opacity:1;" d="M 35.425781 16.5 L 45.425781 16.5 C 45.425781 16.5 57.925781 21 59.925781 27 C 61.925781 33 76.925781 45 76.925781 45 L 79.191406 50 L 73.925781 59 L 59.925781 47 L 53.945312 38.527344 C 53.945312 38.527344 46.925781 29.652344 44.925781 29.324219 C 42.925781 29 29.886719 19 33.90625 16 Z M 35.425781 16.5 "/>
<path style=" stroke:none;fill-rule:nonzero;fill:rgb(100%,82.745099%,0%);fill-opacity:1;" d="M 23.925781 44.429688 L 25.0625 30.28125 L 31.925781 37 C 31.925781 37 42.925781 43 41.925781 45 C 40.925781 47 51.925781 57 51.925781 57 L 63.699219 66.355469 L 49.925781 68 L 37.925781 60 L 32.472656 50.5 L 27.925781 46 L 24.425781 44.429688 Z M 23.925781 44.429688 "/>
<path style=" stroke:none;fill-rule:nonzero;fill:rgb(1.960784%,41.176471%,80.784315%);fill-opacity:1;" d="M 79.085938 41.351562 C 77.738281 40.292969 76.171875 39.257812 74.53125 38.535156 C 72.894531 37.8125 71.496094 37.449219 70.292969 36.847656 C 70.097656 36.75 69.90625 36.652344 69.691406 36.535156 C 67.472656 35.304688 65.257812 33.472656 63.640625 31.425781 C 63.472656 31.210938 63.328125 30.992188 63.160156 30.75 C 62.484375 29.738281 61.835938 28.605469 61.039062 27.570312 C 60.050781 26.292969 59.152344 25.210938 57.949219 24.246094 C 58.910156 25.449219 59.523438 26.753906 60.171875 28.101562 C 60.390625 28.558594 60.582031 29.039062 60.75 29.523438 C 61.113281 30.464844 61.425781 31.449219 61.882812 32.460938 C 62.582031 33.980469 63.519531 35.378906 64.53125 36.652344 C 65.570312 37.929688 66.699219 39.183594 68.074219 40.269531 C 69.472656 41.398438 70.988281 42.171875 72.027344 42.992188 C 73.109375 43.761719 73.976562 44.679688 74.84375 45.761719 L 79.421875 51.5 Z M 79.085938 41.351562 "/>
<path style=" stroke:none;fill-rule:nonzero;fill:rgb(1.960784%,41.176471%,80.784315%);fill-opacity:1;" d="M 59.484375 66.910156 C 59.316406 66.621094 59.148438 66.332031 58.980469 66.066406 C 58.230469 64.839844 57.628906 64.019531 56.691406 62.960938 C 55.824219 61.945312 54.929688 61.128906 53.824219 60.382812 C 52.714844 59.65625 51.148438 58.765625 49.894531 57.65625 C 48.617188 56.550781 47.558594 55.34375 46.59375 54.117188 C 45.605469 52.863281 44.714844 51.464844 44.089844 49.996094 C 43.703125 49.105469 43.414062 48.238281 43.078125 47.394531 C 42.882812 46.863281 42.667969 46.335938 42.402344 45.828125 C 41.179688 43.699219 40.808594 43.140625 39.96875 42.09375 C 41.148438 43.03125 42.257812 44.09375 43.222656 45.296875 C 44.089844 46.355469 44.761719 47.585938 45.460938 48.621094 C 45.558594 48.765625 45.65625 48.910156 45.75 49.054688 C 47.414062 51.273438 49.75 53.175781 52.0625 54.476562 C 52.089844 54.476562 52.089844 54.5 52.113281 54.5 C 53.292969 55.152344 54.472656 55.511719 56.039062 56.113281 C 57.605469 56.71875 59.195312 57.65625 60.546875 58.644531 C 61.871094 59.5625 63.269531 60.980469 64.253906 62.210938 C 64.953125 63.03125 65.605469 63.824219 66.207031 64.691406 "/>
<path style=" stroke:none;fill-rule:nonzero;fill:rgb(1.960784%,41.176471%,80.784315%);fill-opacity:1;" d="M 73.320312 54.191406 C 72.25 53.058594 71.160156 52.15625 69.980469 51.257812 C 68.78125 50.378906 67.390625 49.609375 66.039062 49.09375 C 64.839844 48.625 63.855469 48.304688 62.933594 47.808594 C 62.808594 47.765625 62.699219 47.703125 62.59375 47.640625 C 60.535156 46.441406 58.460938 44.726562 57.046875 42.734375 C 56.9375 42.585938 56.851562 42.433594 56.746094 42.265625 C 56.167969 41.34375 55.566406 40.292969 54.859375 39.394531 C 54.023438 38.324219 51.953125 35.835938 50.925781 35 C 51.757812 36.027344 53.367188 38.566406 53.945312 39.722656 C 54.203125 40.214844 54.667969 40.808594 54.859375 41.320312 C 55.117188 42.007812 55.375 42.734375 55.675781 43.484375 C 56.230469 44.789062 57.023438 45.992188 57.878906 47.082031 C 58.738281 48.175781 59.65625 49.226562 60.769531 50.1875 C 61.886719 51.171875 63.253906 51.921875 64.261719 52.566406 C 65.289062 53.230469 66.082031 53.9375 66.894531 54.8125 C 67.667969 55.671875 68.460938 56.65625 69.015625 57.597656 C 69.636719 58.5625 69.957031 59.417969 70.449219 60.683594 L 71.113281 62.160156 L 75.972656 57.8125 C 75.328125 56.761719 74.285156 55.175781 73.320312 54.191406 Z M 73.320312 54.191406 "/>
<path style=" stroke:none;fill-rule:nonzero;fill:rgb(1.960784%,41.176471%,80.784315%);fill-opacity:1;" d="M 45.425781 68.5 C 44.171875 67.730469 40.734375 64.765625 39.652344 63.679688 C 37.507812 61.511719 35.652344 59.152344 34.519531 56.332031 C 34.351562 55.921875 34.207031 55.511719 34.0625 55.128906 C 33.726562 54.1875 33.386719 53.296875 32.953125 52.429688 C 32.472656 51.511719 31.894531 50.621094 31.265625 49.777344 L 31.195312 49.707031 C 31.027344 49.441406 30.617188 48.765625 30.425781 48.5 C 31.53125 49.390625 32.761719 50.789062 33.699219 51.921875 C 34.617188 53.03125 35.363281 54.355469 36.109375 55.488281 C 36.351562 55.875 36.640625 56.234375 36.929688 56.570312 C 38.324219 58.28125 40.085938 59.679688 41.890625 60.859375 C 42.203125 61.054688 42.542969 61.246094 42.855469 61.414062 C 43.652344 61.824219 44.46875 62.160156 45.363281 62.476562 C 46.640625 62.886719 48.277344 63.582031 49.652344 64.449219 C 50.855469 65.199219 54.726562 68.632812 54.425781 68.5 "/>
<path style=" stroke:none;fill-rule:nonzero;fill:rgb(12.156863%,12.941177%,16.862746%);fill-opacity:1;" d="M 57.925781 15 L 23.925781 15 C 23.371094 15 22.925781 15.445312 22.925781 16 L 22.925781 84 C 22.925781 84.554688 23.371094 85 23.925781 85 L 39.925781 85 C 43.234375 85 45.925781 82.308594 45.925781 79 L 45.925781 69.121094 C 50.023438 69.511719 64.035156 70.179688 73.113281 62.304688 C 78.296875 57.808594 80.925781 51.316406 80.925781 43 C 80.925781 17.382812 58.242188 15.023438 57.925781 15 Z M 75.585938 56.28125 C 75.027344 55.453125 74.34375 54.523438 73.6875 53.847656 C 72.527344 52.621094 71.367188 51.6875 70.277344 50.855469 C 69.027344 49.9375 67.585938 49.148438 66.222656 48.628906 C 65.910156 48.503906 65.609375 48.390625 65.320312 48.28125 C 64.519531 47.980469 63.824219 47.71875 63.09375 47.335938 C 63.019531 47.308594 62.941406 47.261719 62.84375 47.207031 C 60.628906 45.914062 58.714844 44.222656 57.453125 42.445312 C 57.382812 42.34375 57.320312 42.246094 57.257812 42.140625 L 56.78125 41.367188 C 56.308594 40.597656 55.820312 39.804688 55.253906 39.085938 C 54.519531 38.140625 53.550781 36.925781 52.683594 36.011719 C 49.054688 31.070312 43.421875 27.710938 43.1875 27.574219 C 42.003906 26.839844 40.902344 26.082031 39.914062 25.320312 C 35.113281 21.617188 33.863281 18.496094 33.539062 16.996094 L 46.320312 16.996094 C 47.0625 17.304688 54.777344 20.589844 58.175781 25.414062 C 58.742188 26.28125 59.183594 27.195312 59.640625 28.148438 L 59.722656 28.3125 C 59.917969 28.730469 60.105469 29.191406 60.285156 29.703125 C 60.402344 30.007812 60.515625 30.3125 60.628906 30.628906 C 60.867188 31.285156 61.113281 31.96875 61.429688 32.671875 C 62.074219 34.070312 62.960938 35.472656 64.144531 36.96875 C 65.023438 38.050781 66.226562 39.445312 67.761719 40.65625 C 68.558594 41.300781 69.394531 41.835938 70.136719 42.308594 C 70.722656 42.679688 71.273438 43.03125 71.738281 43.398438 C 72.667969 44.058594 73.507812 44.882812 74.488281 46.109375 L 78.152344 49.902344 C 77.597656 52.257812 76.742188 54.386719 75.585938 56.28125 Z M 75.238281 45.449219 C 74.226562 44.183594 73.324219 43.300781 72.335938 42.597656 C 71.855469 42.21875 71.28125 41.851562 70.671875 41.464844 C 69.921875 40.984375 69.140625 40.488281 68.386719 39.875 C 66.921875 38.71875 65.765625 37.378906 64.925781 36.34375 C 63.796875 34.914062 62.949219 33.578125 62.339844 32.257812 C 62.039062 31.59375 61.800781 30.929688 61.566406 30.285156 C 61.453125 29.96875 61.339844 29.652344 61.222656 29.355469 C 61.039062 28.828125 60.839844 28.335938 60.625 27.882812 L 60.578125 27.789062 C 60.601562 27.816406 60.621094 27.847656 60.644531 27.875 C 61.164062 28.550781 61.625 29.28125 62.074219 29.984375 C 62.300781 30.339844 62.519531 30.691406 62.753906 31.035156 L 62.867188 31.207031 C 62.996094 31.390625 63.113281 31.558594 63.25 31.734375 C 64.851562 33.765625 67.109375 35.671875 69.445312 36.96875 C 69.664062 37.089844 69.855469 37.1875 70.070312 37.292969 C 70.734375 37.625 71.453125 37.886719 72.214844 38.160156 C 72.886719 38.40625 73.578125 38.65625 74.328125 38.988281 C 75.757812 39.617188 77.25 40.542969 78.777344 41.742188 C 78.8125 41.769531 78.851562 41.785156 78.890625 41.800781 C 78.902344 42.199219 78.925781 42.585938 78.925781 42.996094 C 78.925781 45.03125 78.746094 46.941406 78.414062 48.730469 Z M 78.84375 40.550781 C 77.441406 39.5 76.0625 38.660156 74.734375 38.078125 C 73.953125 37.730469 73.242188 37.472656 72.554688 37.226562 C 71.824219 36.957031 71.132812 36.707031 70.496094 36.390625 C 70.316406 36.300781 70.136719 36.210938 69.933594 36.097656 C 67.707031 34.863281 65.558594 33.046875 64.035156 31.117188 C 63.914062 30.960938 63.808594 30.804688 63.691406 30.636719 L 63.574219 30.472656 C 63.355469 30.144531 63.136719 29.800781 62.917969 29.453125 C 62.457031 28.726562 61.984375 27.980469 61.4375 27.265625 C 60.503906 26.0625 59.558594 24.894531 58.261719 23.855469 C 58.246094 23.84375 58.226562 23.839844 58.210938 23.828125 C 55.496094 20.625 51.269531 18.238281 48.730469 16.996094 L 57.832031 16.996094 C 58.664062 17.070312 77.503906 19.046875 78.84375 40.550781 Z M 32.511719 17 C 32.804688 18.644531 34.0625 22.074219 39.300781 26.113281 C 40.320312 26.894531 41.449219 27.675781 42.671875 28.429688 C 42.722656 28.460938 47.445312 31.28125 50.9375 35.417969 C 50.914062 35.554688 52.96875 38.882812 53.503906 39.949219 C 53.609375 40.15625 53.753906 40.378906 53.894531 40.605469 C 54.089844 40.914062 54.292969 41.230469 54.394531 41.496094 L 54.632812 42.140625 C 54.8125 42.636719 55.003906 43.148438 55.214844 43.679688 C 55.726562 44.878906 56.46875 46.09375 57.484375 47.390625 C 58.527344 48.71875 59.441406 49.695312 60.441406 50.5625 C 61.335938 51.351562 62.359375 51.980469 63.265625 52.535156 C 63.519531 52.691406 63.765625 52.84375 63.992188 52.984375 C 64.914062 53.582031 65.671875 54.230469 66.523438 55.148438 C 67.40625 56.128906 68.117188 57.0625 68.597656 57.867188 C 69.160156 58.742188 69.460938 59.515625 69.914062 60.683594 L 70.4375 61.867188 C 69.183594 62.78125 67.84375 63.550781 66.457031 64.1875 C 65.847656 63.332031 65.199219 62.546875 64.644531 61.898438 C 63.484375 60.453125 62.058594 59.082031 60.839844 58.242188 C 59.765625 57.457031 58.09375 56.371094 56.21875 55.648438 C 55.816406 55.496094 55.441406 55.355469 55.082031 55.222656 C 54.070312 54.851562 53.199219 54.53125 52.351562 54.0625 C 52.34375 54.058594 52.332031 54.050781 52.320312 54.046875 C 52.3125 54.042969 52.304688 54.039062 52.300781 54.035156 C 49.855469 52.660156 47.671875 50.785156 46.167969 48.777344 L 45.878906 48.34375 C 45.652344 48.007812 45.429688 47.652344 45.203125 47.292969 C 44.714844 46.519531 44.214844 45.71875 43.613281 44.984375 C 42.691406 43.832031 40.105469 41.609375 40.011719 41.601562 C 37.109375 39.210938 34.3125 37.640625 34.167969 37.558594 C 30.660156 35.613281 26.472656 31.113281 24.925781 29.378906 L 24.925781 17 Z M 59.742188 66.367188 C 59.628906 66.175781 59.515625 65.980469 59.40625 65.808594 C 58.636719 64.542969 58.023438 63.710938 57.070312 62.632812 C 56.144531 61.554688 55.203125 60.707031 54.097656 59.960938 C 53.84375 59.796875 53.570312 59.625 53.28125 59.441406 C 52.289062 58.820312 51.167969 58.113281 50.222656 57.28125 C 49.128906 56.332031 48.101562 55.226562 46.988281 53.804688 C 45.933594 52.46875 45.113281 51.117188 44.550781 49.796875 C 44.320312 49.265625 44.125 48.746094 43.933594 48.234375 C 43.804688 47.886719 43.675781 47.546875 43.546875 47.222656 C 43.332031 46.628906 43.121094 46.136719 42.890625 45.679688 C 43.429688 46.351562 43.902344 47.101562 44.355469 47.824219 C 44.589844 48.195312 44.816406 48.558594 45.046875 48.902344 L 45.351562 49.355469 C 46.957031 51.496094 49.253906 53.46875 51.820312 54.914062 C 51.832031 54.921875 51.84375 54.925781 51.855469 54.933594 C 51.863281 54.9375 51.871094 54.941406 51.878906 54.945312 C 52.789062 55.445312 53.691406 55.777344 54.738281 56.164062 C 55.09375 56.292969 55.464844 56.429688 55.859375 56.585938 C 57.242188 57.113281 58.800781 57.992188 60.261719 59.058594 C 61.414062 59.855469 62.761719 61.152344 63.875 62.539062 C 64.386719 63.132812 64.964844 63.847656 65.515625 64.605469 C 63.621094 65.394531 61.664062 65.960938 59.742188 66.367188 Z M 53.8125 67.179688 C 52.355469 65.789062 49.953125 64.050781 49.917969 64.027344 C 48.671875 63.242188 47.027344 62.484375 45.527344 62.003906 C 44.585938 61.675781 43.808594 61.347656 43.09375 60.976562 C 42.785156 60.8125 42.457031 60.621094 42.164062 60.445312 C 40.101562 59.097656 38.515625 57.726562 37.308594 56.25 C 37.074219 55.976562 36.777344 55.613281 36.527344 55.214844 C 36.316406 54.894531 36.105469 54.558594 35.890625 54.21875 C 35.335938 53.335938 34.761719 52.421875 34.085938 51.605469 C 32.890625 50.167969 31.902344 49.125 31.0625 48.394531 C 30.125 47.320312 27.015625 43.925781 24.925781 43.9375 L 24.925781 30.875 C 26.855469 32.976562 30.476562 36.65625 33.679688 38.4375 C 33.71875 38.460938 36.875 40.230469 39.910156 42.828125 C 40.539062 43.644531 40.949219 44.296875 41.960938 46.058594 C 42.183594 46.492188 42.390625 46.96875 42.613281 47.578125 C 42.742188 47.910156 42.867188 48.246094 42.996094 48.585938 C 43.191406 49.113281 43.394531 49.648438 43.628906 50.191406 C 44.226562 51.59375 45.09375 53.019531 46.199219 54.425781 C 47.355469 55.894531 48.425781 57.042969 49.5625 58.03125 C 50.566406 58.917969 51.722656 59.648438 52.746094 60.289062 C 53.03125 60.46875 53.300781 60.640625 53.542969 60.796875 C 54.578125 61.492188 55.433594 62.261719 56.316406 63.289062 C 57.230469 64.324219 57.816406 65.121094 58.554688 66.335938 C 58.601562 66.410156 58.652344 66.496094 58.699219 66.574219 C 57.003906 66.882812 55.347656 67.074219 53.8125 67.179688 Z M 43.925781 73.664062 C 43.542969 73.398438 43.140625 73.128906 42.710938 72.863281 C 41.472656 72.082031 39.824219 71.320312 38.320312 70.839844 C 37.03125 70.390625 36.101562 69.96875 35.214844 69.414062 C 35.171875 69.386719 35.113281 69.351562 35.0625 69.339844 C 35.015625 69.308594 34.964844 69.277344 34.957031 69.277344 C 32.59375 67.746094 30.84375 66.160156 29.546875 64.355469 C 29.480469 64.289062 29.429688 64.214844 29.320312 64.050781 C 29.109375 63.730469 28.898438 63.394531 28.683594 63.054688 C 28.128906 62.171875 27.554688 61.257812 26.878906 60.4375 C 26.304688 59.742188 25.96875 59.625 25.5625 59.535156 C 25.386719 59.496094 25.214844 59.449219 24.925781 59.246094 L 24.925781 44.933594 C 26.140625 44.914062 28.425781 46.980469 29.953125 48.652344 C 29.96875 48.703125 29.988281 48.75 30.019531 48.792969 C 30.15625 48.976562 30.398438 49.371094 30.585938 49.671875 L 30.773438 49.976562 C 30.792969 50.003906 30.816406 50.035156 30.839844 50.058594 L 30.863281 50.078125 C 31.511719 50.949219 32.066406 51.820312 32.507812 52.652344 C 32.902344 53.449219 33.21875 54.253906 33.59375 55.304688 L 33.710938 55.621094 C 33.820312 55.914062 33.933594 56.21875 34.054688 56.519531 C 35.078125 59.0625 36.742188 61.449219 39.296875 64.035156 C 40.117188 64.851562 42.328125 66.796875 43.925781 68.03125 Z M 24.925781 60.914062 C 25.070312 61.113281 25.203125 61.304688 25.304688 61.492188 C 25.628906 62.125 25.878906 62.769531 26.144531 63.449219 L 26.1875 63.566406 C 26.382812 64.152344 26.605469 64.742188 26.851562 65.355469 C 27.871094 67.898438 29.535156 70.285156 32.09375 72.871094 C 33.332031 74.109375 34.84375 75.140625 35.898438 75.785156 C 37.207031 76.578125 38.023438 77.1875 38.8125 77.953125 C 40.511719 79.652344 40.320312 81.8125 40.039062 82.988281 C 40 82.988281 39.964844 83 39.925781 83 L 24.925781 83 Z M 41.097656 82.804688 C 41.359375 81.359375 41.363281 79.089844 39.515625 77.242188 C 38.660156 76.410156 37.792969 75.761719 36.414062 74.933594 C 35.410156 74.3125 33.96875 73.332031 32.800781 72.164062 C 30.34375 69.679688 28.746094 67.394531 27.777344 64.980469 C 27.539062 64.386719 27.328125 63.816406 27.128906 63.226562 L 27.074219 63.085938 C 26.851562 62.511719 26.640625 61.96875 26.382812 61.417969 C 26.90625 62.101562 27.378906 62.855469 27.839844 63.585938 C 28.058594 63.933594 28.273438 64.273438 28.527344 64.660156 C 28.613281 64.789062 28.699219 64.921875 28.785156 64.996094 C 30.101562 66.84375 31.941406 68.515625 34.414062 70.113281 C 34.429688 70.125 34.496094 70.164062 34.511719 70.171875 C 34.566406 70.210938 34.640625 70.257812 34.738281 70.296875 C 35.679688 70.871094 36.65625 71.316406 38.003906 71.785156 C 39.445312 72.246094 41.007812 72.96875 42.183594 73.710938 C 42.820312 74.097656 43.390625 74.503906 43.925781 74.894531 L 43.925781 79 C 43.925781 80.796875 42.730469 82.300781 41.097656 82.804688 Z M 45.066406 67.011719 C 44.839844 66.976562 44.621094 67.042969 44.425781 67.160156 C 42.933594 65.988281 40.851562 64.175781 40.007812 63.328125 C 37.550781 60.847656 35.953125 58.5625 34.984375 56.144531 C 34.863281 55.851562 34.753906 55.558594 34.652344 55.273438 L 34.535156 54.960938 C 34.269531 54.226562 33.964844 53.394531 33.578125 52.570312 C 34.105469 53.257812 34.582031 54.011719 35.042969 54.746094 C 35.265625 55.097656 35.480469 55.4375 35.6875 55.753906 C 35.964844 56.199219 36.296875 56.601562 36.542969 56.890625 C 37.808594 58.441406 39.46875 59.875 41.632812 61.289062 C 41.953125 61.484375 42.300781 61.683594 42.628906 61.859375 C 43.394531 62.257812 44.210938 62.601562 45.210938 62.953125 C 46.648438 63.414062 48.207031 64.132812 49.390625 64.878906 C 49.984375 65.246094 51.285156 66.324219 52.359375 67.257812 C 48.160156 67.425781 45.136719 67.019531 45.066406 67.011719 Z M 71.808594 60.789062 C 71.628906 60.945312 71.4375 61.09375 71.253906 61.242188 L 70.917969 60.5 L 70.847656 60.320312 C 70.386719 59.136719 70.054688 58.285156 69.449219 57.34375 C 68.941406 56.484375 68.207031 55.519531 67.265625 54.472656 C 66.347656 53.484375 65.53125 52.785156 64.53125 52.140625 C 64.300781 51.996094 64.050781 51.839844 63.785156 51.679688 C 62.917969 51.148438 61.933594 50.542969 61.097656 49.808594 C 60.144531 48.984375 59.273438 48.046875 58.273438 46.773438 C 57.3125 45.542969 56.609375 44.402344 56.140625 43.296875 C 55.933594 42.78125 55.746094 42.277344 55.570312 41.792969 L 55.328125 41.144531 C 55.195312 40.785156 54.964844 40.421875 54.738281 40.070312 C 54.730469 40.054688 54.71875 40.039062 54.710938 40.023438 C 55.148438 40.617188 55.542969 41.261719 55.929688 41.894531 L 56.40625 42.664062 C 56.484375 42.789062 56.554688 42.90625 56.636719 43.023438 C 57.980469 44.917969 60.007812 46.710938 62.335938 48.066406 C 62.457031 48.140625 62.597656 48.222656 62.699219 48.253906 C 63.410156 48.632812 64.132812 48.902344 64.96875 49.21875 C 65.253906 49.328125 65.550781 49.4375 65.863281 49.5625 C 67.148438 50.054688 68.507812 50.796875 69.679688 51.65625 C 70.726562 52.457031 71.847656 53.359375 72.964844 54.542969 C 73.679688 55.273438 74.4375 56.34375 75.003906 57.21875 C 74.09375 58.53125 73.03125 59.726562 71.808594 60.789062 Z M 71.808594 60.789062 "/>
</g>
</svg>
