<svg xmlns="http://www.w3.org/2000/svg" x="0px" y="0px"
width="64" height="64"
viewBox="0 0 172 172"
style=" fill:#000000;"><g fill="none" fill-rule="nonzero" stroke="none" stroke-width="1" stroke-linecap="butt" stroke-linejoin="miter" stroke-miterlimit="10" stroke-dasharray="" stroke-dashoffset="0" font-family="none" font-weight="none" font-size="none" text-anchor="none" style="mix-blend-mode: normal"><path d="M0,172v-172h172v172z" fill="none"></path><g><path d="M23.51563,126.17813v-0.26875c0,-12.63125 10.2125,-22.84375 22.70938,-22.84375l102.125,-0.13437l0.13438,45.82188l-102.125,0.13438c-12.49688,0.13437 -22.70937,-10.07813 -22.84375,-22.70938z" fill="#ffd300"></path><path d="M30.36875,110.1875l72.025,-73.1l32.25,32.25l-72.025,73.1z" fill="#5851ff"></path><path d="M73.1,153.32188c-2.28437,0 -4.03125,-1.74688 -4.03125,-4.03125c0,-2.28438 1.74688,-4.03125 4.03125,-4.03125l71.35313,-0.13438v-37.75937l-39.50625,0.13437v0c-2.28437,0 -4.03125,-1.74688 -4.03125,-4.03125c0,-2.28437 1.74688,-4.03125 4.03125,-4.03125l43.40313,-0.13437v0c1.075,0 2.15,0.40312 2.82187,1.20938c0.80625,0.80625 1.20938,1.74687 1.20938,2.82187l0.13437,45.82187c0,2.28438 -1.74687,4.03125 -4.03125,4.03125l-75.38437,0.13438z" fill="#454b54"></path><path d="M81.43125,127.65625c-1.075,0 -2.01562,-0.40313 -2.82188,-1.20938c-1.6125,-1.6125 -1.6125,-4.16562 0,-5.64375l50.39063,-51.46562l-26.60625,-26.60625l-69.20312,70.27812c-1.6125,1.6125 -4.16562,1.6125 -5.64375,0c-1.6125,-1.6125 -1.6125,-4.16562 0,-5.64375l72.025,-73.1c0.80625,-0.80625 1.74688,-1.20938 2.82187,-1.20938v0c1.075,0 2.15,0.40313 2.82187,1.20938l32.25,32.25c1.6125,1.6125 1.6125,4.03125 0,5.64375l-53.2125,54.2875c-0.80625,0.80625 -1.88125,1.20938 -2.82187,1.20938z" fill="#454b54"></path><path d="M46.49375,149.02188c-12.49687,0 -22.70937,-10.21384 -22.70937,-22.70937v-103.33437h45.41875v103.33438c0,12.49687 -10.07812,22.70937 -22.70937,22.70937" fill="#ffd300"></path><path d="M69.20313,76.8625h-45.41875v26.3375h45.41875v-26.3375" fill="#5851ff"></path><path d="M69.20313,50.525h-45.41875v26.3375h45.41875v-26.3375" fill="#ffd300"></path><path d="M23.78438,22.97813h45.41875v26.3375h-45.41875z" fill="#5851ff"></path><path d="M69.20313,107.23125h-45.41875c-2.28438,0 -4.03125,-1.74688 -4.03125,-4.03125c0,-2.28438 1.74687,-4.03125 4.03125,-4.03125h45.41875c2.28437,0 4.03125,1.74687 4.03125,4.03125c0,2.28437 -1.74688,4.03125 -4.03125,4.03125zM67.59063,80.89375h-43.13438c-2.28438,0 -4.03125,-1.74687 -4.03125,-4.03125c0,-2.28437 1.74687,-4.03125 4.03125,-4.03125h43.13438c2.28437,0 4.03125,1.74688 4.03125,4.03125c0,2.28438 -1.88125,4.03125 -4.03125,4.03125zM69.20313,53.34688h-45.41875c-2.28438,0 -4.03125,-1.74687 -4.03125,-4.03125c0,-2.28438 1.74687,-4.03125 4.03125,-4.03125h45.41875c2.28437,0 4.03125,1.74687 4.03125,4.03125c0,2.28438 -1.74688,4.03125 -4.03125,4.03125z" fill="#454b54"></path><path d="M46.49375,153.05313c-14.78125,0 -26.74062,-11.95937 -26.74062,-26.74062v-103.33437c0,-2.28438 1.74687,-4.03125 4.03125,-4.03125h45.41875c2.28437,0 4.03125,1.74687 4.03125,4.03125v103.33438c0,14.78125 -11.95938,26.74062 -26.74062,26.74062zM27.81563,27.00938v99.30313c0,10.34688 8.33125,18.67812 18.67812,18.67812c10.34688,0 18.67813,-8.33125 18.67813,-18.67812v-99.30312z" fill="#454b54"></path><path d="M46.49375,136.12187c-5.375,0 -9.675,-4.43437 -9.675,-9.80937c0,-5.375 4.3,-9.80938 9.675,-9.80938c5.375,0 9.675,4.43438 9.675,9.80938c0,5.375 -4.3,9.80937 -9.675,9.80937zM46.49375,124.7c-0.94062,0 -1.6125,0.80625 -1.6125,1.74687c0,0.94063 0.67188,1.74688 1.6125,1.74688c0.94063,0 1.6125,-0.80625 1.6125,-1.74688c0.13437,-1.075 -0.67188,-1.74687 -1.6125,-1.74687z" fill="#454b54"></path></g></g></svg>