<svg width="100" height="100" viewBox="0 0 100 100" fill="none" xmlns="http://www.w3.org/2000/svg">
<path d="M24.0982 93.8571V16.1429H63.9603C63.9603 16.1429 89.7534 18.4286 89.7534 47C89.7534 81.2857 48.7189 75.5714 48.7189 75.5714V88.1429C48.7189 91.2991 46.0947 93.8571 42.8568 93.8571H24.0982Z" fill="#0569CE"/>
<path d="M43.2186 93.9062C43.2186 93.9062 45.1146 89.6071 41.9683 86.5402C40.9516 85.5804 39.9349 84.8616 38.4374 83.9821C36.9673 83.0982 35.3598 81.9687 34.0866 80.7321C31.5723 78.2545 29.3969 75.5536 28.0688 72.3304C27.7895 71.6429 27.533 70.9821 27.3086 70.3214C26.9697 69.4688 26.6583 68.6696 26.2323 67.8705C25.866 67.183 25.1927 66.4911 24.6844 65.8571C25.9805 66.875 26.0079 66 27.1071 67.2946C28.1833 68.558 29.058 70.0759 29.9328 71.3705C30.0473 71.5357 30.1297 71.6741 30.2717 71.808C31.9662 74.1205 34.311 75.9955 36.7108 77.5089C36.8253 77.5625 36.9123 77.6473 37.0222 77.6741C38.2084 78.3884 39.3945 78.8839 40.7776 79.3527C42.2752 79.8214 44.1987 80.6205 45.8062 81.6116C46.6855 82.1339 47.4732 82.6875 48.238 83.2366L48.7189 90.4286L44.0292 93.8571L43.2186 93.9062Z" fill="#0569CE"/>
<path d="M24.0982 92.7143L42.8568 93.8571L43.7682 90.625L41.6844 85.8571L36.4589 82.683L33.2485 79.8839L28.7879 73.2857L27.6154 69.8571L24.0982 65.2857V92.7143Z" fill="#0569CE"/>
<path d="M25.1744 35.5625L24.0982 16.1429H35.3003L54.581 33.2857L68.3568 53.2857L82.238 67.0714L72.6251 73.0268L51.0637 58.4286L34.6499 45.8571L25.1744 35.5625Z" fill="#FFD300"/>
<path d="M37.581 16.7143H49.3051C49.3051 16.7143 63.9603 21.8571 66.3051 28.7143C68.6499 35.5714 86.2361 49.2857 86.2361 49.2857L88.8924 55L82.7189 65.2857L66.3051 51.5714L59.2935 41.8884C59.2935 41.8884 51.0637 31.7455 48.7189 31.3705C46.3741 31 31.0869 19.5714 35.7994 16.1429L37.581 16.7143Z" fill="#FFD300"/>
<path d="M24.0982 48.6339L25.4309 32.4643L33.4775 40.1429C33.4775 40.1429 46.3741 47 45.2017 49.2857C44.0292 51.5714 56.9258 63 56.9258 63L70.7291 73.692L54.581 75.5714L40.512 66.4286L34.1187 55.5714L28.7879 50.4286L24.6844 48.6339H24.0982Z" fill="#FFD300"/>
<path d="M88.7687 45.1161C87.1887 43.9063 85.3522 42.7232 83.4287 41.8973C81.5098 41.0714 79.8703 40.6563 78.4597 39.9687C78.2307 39.8571 78.0063 39.7455 77.7544 39.6116C75.1531 38.2054 72.5564 36.1116 70.6604 33.7723C70.4635 33.5268 70.294 33.2768 70.0971 33C69.3048 31.8437 68.5446 30.5491 67.6103 29.3661C66.4516 27.9062 65.3983 26.6696 63.9877 25.567C65.1143 26.942 65.8334 28.433 66.5936 29.9732C66.8501 30.4955 67.0745 31.0446 67.2714 31.5982C67.6973 32.6741 68.0637 33.7991 68.5995 34.9554C69.4193 36.692 70.5184 38.2902 71.7046 39.7455C72.9228 41.2054 74.2464 42.6384 75.8584 43.8795C77.498 45.1696 79.2749 46.0536 80.4931 46.9911C81.7617 47.8705 82.7784 48.9196 83.7951 50.1563L89.1626 56.7143L88.7687 45.1161Z" fill="#0569CE"/>
<path d="M65.7876 74.3259C65.5907 73.9955 65.3937 73.6652 65.1968 73.3616C64.3175 71.9598 63.6122 71.0223 62.5131 69.8125C61.4964 68.6518 60.4476 67.7188 59.1515 66.8661C57.8509 66.0357 56.0144 65.0179 54.5443 63.75C53.0467 62.4866 51.8056 61.1071 50.6744 59.7054C49.5158 58.2723 48.4716 56.6741 47.7388 54.9955C47.2854 53.9777 46.9465 52.9866 46.5527 52.0223C46.3237 51.4152 46.0718 50.8125 45.7604 50.2321C44.3269 47.7991 43.8918 47.1607 42.9072 45.9643C44.2903 47.0357 45.5909 48.25 46.7221 49.625C47.7388 50.8348 48.5265 52.2411 49.3463 53.4241C49.4608 53.5893 49.5753 53.7545 49.6852 53.9196C51.6362 56.4554 54.3749 58.6295 57.0861 60.1161C57.1181 60.1161 57.1181 60.1429 57.1456 60.1429C58.5287 60.8884 59.9118 61.2991 61.7483 61.9866C63.5847 62.6786 65.4487 63.75 67.0333 64.8795C68.5858 65.9286 70.2254 67.5491 71.3794 68.9554C72.1992 69.8929 72.964 70.7991 73.6693 71.7902" fill="#0569CE"/>
<path d="M82.009 59.7902C80.7542 58.4955 79.4764 57.4643 78.0933 56.4375C76.6874 55.433 75.057 54.5536 73.4724 53.9643C72.0664 53.4286 70.9123 53.0625 69.8315 52.4955C69.6849 52.4464 69.5567 52.375 69.433 52.3036C67.0195 50.933 64.5877 48.9732 62.9298 46.6964C62.8016 46.5268 62.7008 46.3527 62.5772 46.1607C61.8994 45.1071 61.1941 43.9063 60.3652 42.8795C59.3851 41.6563 56.9578 38.8125 55.7534 37.8571C56.7288 39.0313 58.6157 41.933 59.2935 43.2545C59.5958 43.817 60.1407 44.4955 60.3652 45.0804C60.6674 45.8661 60.9697 46.6964 61.3223 47.5536C61.9726 49.0446 62.9023 50.4196 63.9053 51.6652C64.9128 52.9152 65.9891 54.1161 67.2943 55.2143C68.6041 56.3393 70.207 57.1964 71.3886 57.933C72.5931 58.692 73.5228 59.5 74.4753 60.5C75.3821 61.4821 76.3118 62.6071 76.9621 63.683C77.6903 64.7857 78.0659 65.7634 78.6429 67.2098L79.4215 68.8973L85.1187 63.9286C84.363 62.7277 83.1402 60.9152 82.009 59.7902Z" fill="#0569CE"/>
<path d="M49.3051 76.1429C47.835 75.2634 43.8048 71.875 42.5362 70.6339C40.0219 68.1562 37.8466 65.4598 36.5184 62.2366C36.3215 61.7679 36.1521 61.2991 35.9826 60.8616C35.5888 59.7857 35.1903 58.7679 34.682 57.7768C34.1187 56.7277 33.4409 55.7098 32.7035 54.7455L32.6211 54.6652C32.4242 54.3616 31.9433 53.5893 31.7189 53.2857C33.0149 54.3036 34.4576 55.9018 35.5567 57.1964C36.6329 58.4643 37.5077 59.9777 38.3824 61.2723C38.6663 61.7143 39.0052 62.125 39.3441 62.5089C40.9791 64.4643 43.0446 66.0625 45.1604 67.4107C45.5268 67.6339 45.9252 67.8527 46.2916 68.0446C47.2259 68.5134 48.183 68.8973 49.2318 69.2589C50.7294 69.7277 52.6483 70.5223 54.2604 71.5134C55.6709 72.3705 60.2094 76.2946 59.8568 76.1429" fill="#0569CE"/>
<path d="M63.9603 15H24.0982C23.4479 15 22.9258 15.5089 22.9258 16.1429V93.8571C22.9258 94.4911 23.4479 95 24.0982 95H42.8568C46.7359 95 49.8913 91.9241 49.8913 88.1429V76.8527C54.6954 77.2991 71.123 78.0625 81.7663 69.0625C87.8436 63.9241 90.9258 56.5045 90.9258 47C90.9258 17.7232 64.3312 15.0268 63.9603 15ZM84.6653 62.1786C84.0104 61.2321 83.2089 60.1696 82.4395 59.3973C81.0793 57.9955 79.7192 56.9286 78.4414 55.9777C76.9759 54.9286 75.286 54.0268 73.6876 53.433C73.3213 53.2902 72.9686 53.1607 72.6297 53.0357C71.6909 52.692 70.8757 52.3929 70.0193 51.9554C69.9322 51.9241 69.8407 51.8705 69.7262 51.808C67.1294 50.3304 64.8854 48.3973 63.4061 46.3661C63.3237 46.25 63.2504 46.1384 63.1771 46.0179L62.6184 45.1339C62.0643 44.2545 61.4918 43.3482 60.8277 42.5268C59.9667 41.4464 58.831 40.058 57.8143 39.0134C53.5597 33.3661 46.9557 29.5268 46.6809 29.3705C45.2932 28.5313 44.0018 27.6652 42.8431 26.7946C37.2146 22.5625 35.7491 18.9955 35.3689 17.2813H50.3539C51.224 17.6339 60.269 21.3884 64.2534 26.9018C64.9174 27.8929 65.4349 28.9375 65.9708 30.0268L66.0669 30.2143C66.2959 30.692 66.5158 31.2188 66.7264 31.8036C66.8638 32.1518 66.9966 32.5 67.1294 32.8616C67.4088 33.6116 67.6973 34.3929 68.0683 35.1964C68.824 36.7946 69.8636 38.3973 71.2512 40.1071C72.2817 41.3438 73.6922 42.9375 75.4921 44.3214C76.4263 45.058 77.4064 45.6696 78.2765 46.2098C78.9635 46.6339 79.6092 47.0357 80.1542 47.4554C81.2442 48.2098 82.2289 49.1518 83.3784 50.5536L87.6742 54.8884C87.0238 57.5804 86.0209 60.0134 84.6653 62.1786ZM84.2577 49.7991C83.0715 48.3527 82.0136 47.3438 80.8549 46.5402C80.2916 46.1071 79.6184 45.6875 78.904 45.2455C78.0247 44.6964 77.1087 44.1295 76.2248 43.4286C74.5074 42.1071 73.1518 40.5759 72.1672 39.3929C70.8436 37.7589 69.8498 36.2321 69.1354 34.7232C68.7827 33.9643 68.5034 33.2054 68.2286 32.4688C68.0958 32.1071 67.963 31.7455 67.8256 31.4063C67.6103 30.8036 67.3768 30.2411 67.1249 29.7232L67.0699 29.6161C67.0974 29.6473 67.1203 29.683 67.1478 29.7143C67.7569 30.4866 68.2973 31.3214 68.824 32.125C69.0896 32.5313 69.346 32.933 69.6208 33.3259L69.7536 33.5223C69.9048 33.7321 70.0422 33.9241 70.2025 34.125C72.0801 36.4464 74.7272 38.625 77.4659 40.1071C77.7224 40.2455 77.9468 40.3571 78.1987 40.4777C78.9772 40.8571 79.8199 41.1563 80.713 41.4688C81.5007 41.75 82.3113 42.0357 83.1906 42.4152C84.8668 43.1339 86.6162 44.192 88.4069 45.5625C88.4481 45.5938 88.4939 45.6116 88.5397 45.6295C88.5535 46.0848 88.581 46.5268 88.581 46.9955C88.581 49.3214 88.3703 51.5045 87.981 53.5491L84.2577 49.7991ZM88.4848 44.2009C86.8407 43 85.224 42.0402 83.6669 41.375C82.7509 40.9777 81.9174 40.683 81.1114 40.4018C80.255 40.0938 79.4444 39.808 78.6979 39.4464C78.4872 39.3438 78.2765 39.2411 78.0384 39.1116C75.4279 37.7009 72.9091 35.625 71.123 33.4196C70.981 33.2411 70.8574 33.0625 70.72 32.8705L70.5826 32.683C70.3261 32.308 70.0696 31.9152 69.8132 31.5179C69.2728 30.6875 68.7186 29.8348 68.0775 29.0179C66.9829 27.6429 65.8746 26.308 64.3541 25.1205C64.3358 25.1071 64.3129 25.1027 64.2946 25.0893C61.1117 21.4286 56.1564 18.7009 53.1796 17.2813H63.8504C64.8258 17.3661 86.9139 19.625 88.4848 44.2009ZM34.1645 17.2857C34.5079 19.1652 35.9826 23.0848 42.1241 27.7009C43.3194 28.5938 44.6429 29.4866 46.0764 30.3482C46.1359 30.3839 51.6728 33.6071 55.7671 38.3348C55.7396 38.4911 58.1486 42.2946 58.776 43.5134C58.8997 43.75 59.0691 44.0045 59.234 44.2634C59.463 44.6161 59.7011 44.9777 59.8202 45.2813L60.0995 46.0179C60.3102 46.5848 60.5346 47.1696 60.7819 47.7768C61.3819 49.1473 62.252 50.5357 63.4428 52.0179C64.6655 53.5357 65.7372 54.6518 66.9096 55.6429C67.9584 56.5446 69.1583 57.2634 70.2208 57.8973C70.5185 58.0759 70.807 58.25 71.0726 58.4107C72.1534 59.0938 73.0419 59.8348 74.0403 60.8839C75.0753 62.0045 75.9088 63.0714 76.4721 63.9911C77.1316 64.9911 77.4842 65.875 78.0155 67.2098L78.6292 68.5625C77.1591 69.6071 75.5882 70.4866 73.9624 71.2143C73.248 70.2366 72.4877 69.3393 71.8374 68.5982C70.4772 66.9464 68.8056 65.3795 67.3768 64.4196C66.1173 63.5223 64.1572 62.2813 61.9589 61.4554C61.4872 61.2813 61.0475 61.1205 60.6262 60.9688C59.4401 60.5446 58.4188 60.1786 57.425 59.6429C57.4158 59.6384 57.4021 59.6295 57.3883 59.625C57.3792 59.6205 57.37 59.6161 57.3654 59.6116C54.4985 58.0402 51.9384 55.8973 50.1752 53.6027L49.8363 53.1071C49.5707 52.7232 49.3097 52.317 49.044 51.9063C48.4716 51.0223 47.8854 50.1071 47.1801 49.2679C46.0993 47.9509 43.0675 45.4107 42.9576 45.4018C39.5548 42.6696 36.2757 40.875 36.1063 40.7813C31.9937 38.558 27.0842 33.4152 25.2706 31.433V17.2857H34.1645ZM66.0898 73.7054C65.957 73.4866 65.8242 73.2634 65.696 73.067C64.7938 71.6205 64.0748 70.6696 62.9573 69.4375C61.8719 68.2054 60.7682 67.2366 59.4721 66.3839C59.1744 66.1964 58.8539 66 58.515 65.7902C57.3517 65.0804 56.0373 64.2723 54.929 63.3214C53.6467 62.2366 52.4422 60.9732 51.137 59.3482C49.9005 57.8214 48.9387 56.2768 48.2792 54.7679C48.009 54.1607 47.78 53.567 47.5556 52.9821C47.4045 52.5848 47.2534 52.1964 47.1022 51.8259C46.8504 51.1473 46.603 50.5848 46.3328 50.0625C46.9648 50.8304 47.519 51.6875 48.0502 52.5134C48.325 52.9375 48.5907 53.3527 48.8609 53.7455L49.2181 54.2634C51.1004 56.7098 53.7932 58.9643 56.8021 60.6161C56.8159 60.625 56.8296 60.6295 56.8433 60.6384C56.8525 60.6429 56.8617 60.6473 56.8708 60.6518C57.9379 61.2232 58.9958 61.6027 60.2232 62.0446C60.64 62.192 61.075 62.3482 61.5376 62.5268C63.1588 63.1295 64.9861 64.1339 66.699 65.3527C68.05 66.2634 69.63 67.7455 70.9352 69.3304C71.5352 70.0089 72.213 70.8259 72.8587 71.692C70.6375 72.5938 68.3431 73.2411 66.0898 73.7054ZM59.1378 74.6339C57.4296 73.0446 54.613 71.058 54.5718 71.0313C53.1109 70.1339 51.1828 69.2679 49.4242 68.7188C48.3204 68.3438 47.4091 67.9688 46.571 67.5446C46.2092 67.3571 45.8245 67.1384 45.481 66.9375C43.0629 65.3973 41.2035 63.8304 39.7884 62.1429C39.5136 61.8304 39.1655 61.4152 38.8724 60.9598C38.6251 60.5938 38.3778 60.2098 38.1259 59.8214C37.4756 58.8125 36.8024 57.7679 36.0101 56.8348C34.6087 55.192 33.45 54 32.4654 53.1652C31.3662 51.9375 27.7208 48.058 25.2706 48.0714V33.1429C27.533 35.5446 31.7784 39.75 35.5338 41.7857C35.5796 41.8125 39.28 43.8348 42.8385 46.8036C43.5758 47.7366 44.0567 48.4821 45.2429 50.4955C45.5039 50.9911 45.7466 51.5357 46.0077 52.2321C46.1588 52.6116 46.3054 52.9955 46.4565 53.3839C46.6855 53.9866 46.9236 54.5982 47.1984 55.2188C47.8991 56.8214 48.9158 58.4509 50.2119 60.058C51.5675 61.7366 52.8223 63.0491 54.155 64.1786C55.332 65.192 56.6876 66.0268 57.8875 66.7589C58.2218 66.9643 58.5379 67.1607 58.8218 67.3393C60.0354 68.1339 61.0384 69.0134 62.0734 70.1875C63.1451 71.3705 63.832 72.2813 64.6976 73.6696C64.7526 73.7545 64.8121 73.8527 64.8671 73.942C62.8794 74.2946 60.9376 74.5134 59.1378 74.6339ZM47.5465 82.0446C47.0977 81.7411 46.6259 81.433 46.1222 81.1295C44.6704 80.2366 42.7377 79.3661 40.9745 78.817C39.4632 78.3036 38.3732 77.8214 37.3336 77.1875C37.2833 77.1563 37.2146 77.1161 37.155 77.1027C37.1001 77.067 37.0405 77.0313 37.0314 77.0313C34.2606 75.2813 32.2089 73.4688 30.6884 71.4063C30.6106 71.3304 30.5511 71.2455 30.4228 71.058C30.1755 70.692 29.9282 70.308 29.6763 69.9196C29.026 68.9107 28.3528 67.8661 27.5605 66.9286C26.8873 66.1339 26.4934 66 26.0171 65.8973C25.811 65.8527 25.6095 65.7991 25.2706 65.567V49.2098C26.6949 49.1875 29.3741 51.5491 31.1647 53.4598C31.1831 53.5179 31.206 53.5714 31.2426 53.6205C31.4029 53.8304 31.6868 54.2813 31.9067 54.625L32.1265 54.9732C32.1494 55.0045 32.1769 55.0402 32.2043 55.067L32.2318 55.0893C32.9921 56.0848 33.6424 57.0804 34.1599 58.0313C34.6224 58.942 34.9934 59.8616 35.4331 61.0625L35.5704 61.4241C35.6987 61.7589 35.8315 62.1071 35.9735 62.4509C37.1734 65.3571 39.1243 68.0848 42.1195 71.0402C43.0812 71.9732 45.6734 74.1964 47.5465 75.6071V82.0446ZM25.2706 67.4732C25.4401 67.7009 25.5958 67.9196 25.7148 68.1339C26.095 68.8571 26.3881 69.5938 26.6995 70.3705L26.7499 70.5045C26.9789 71.1741 27.2399 71.8482 27.5284 72.5491C28.7237 75.4554 30.6747 78.183 33.6744 81.1384C35.1262 82.5536 36.8986 83.7321 38.1351 84.4688C39.6693 85.375 40.6265 86.0714 41.5516 86.9464C43.5438 88.8884 43.3194 91.3571 42.9896 92.7009C42.9438 92.7009 42.9026 92.7143 42.8568 92.7143H25.2706V67.4732ZM44.2307 92.4911C44.5376 90.8393 44.5422 88.2455 42.3759 86.1339C41.373 85.183 40.3563 84.442 38.7396 83.4955C37.5626 82.7857 35.8727 81.6652 34.5034 80.3304C31.6227 77.4911 29.7496 74.8795 28.6138 72.1205C28.3345 71.442 28.0872 70.7902 27.8536 70.1161L27.7895 69.9554C27.5284 69.2991 27.2811 68.6786 26.9789 68.0491C27.5925 68.8304 28.1467 69.692 28.6871 70.5268C28.9436 70.9241 29.1954 71.3125 29.4931 71.7545C29.5939 71.9018 29.6946 72.0536 29.7954 72.1384C31.3388 74.25 33.4958 76.1607 36.3948 77.9866C36.4131 78 36.491 78.0446 36.5093 78.0536C36.5734 78.0982 36.6604 78.1518 36.7749 78.1964C37.8786 78.8527 39.0236 79.3616 40.6036 79.8973C42.2935 80.4241 44.1254 81.25 45.5039 82.0982C46.2504 82.5402 46.919 83.0045 47.5465 83.4509V88.1429C47.5465 90.1964 46.1451 91.9152 44.2307 92.4911ZM48.8838 74.442C48.6181 74.4018 48.3617 74.4777 48.1327 74.6116C46.3832 73.2723 43.9422 71.2009 42.953 70.2321C40.0723 67.3973 38.1992 64.7857 37.0634 62.0223C36.9215 61.6875 36.7932 61.3527 36.6742 61.0268L36.5368 60.6696C36.2254 59.8304 35.8681 58.8795 35.4147 57.9375C36.033 58.7232 36.5917 59.5848 37.1321 60.4241C37.3932 60.8259 37.6451 61.2143 37.8878 61.5759C38.213 62.0848 38.6022 62.5446 38.8908 62.875C40.3746 64.6473 42.321 66.2857 44.8582 67.9018C45.2337 68.125 45.6413 68.3527 46.026 68.5536C46.9236 69.0089 47.8808 69.4018 49.0532 69.8036C50.7386 70.3304 52.5659 71.1518 53.9535 72.0045C54.6497 72.4241 56.1747 73.6563 57.4341 74.7232C52.5109 74.9152 48.9662 74.4509 48.8838 74.442ZM80.2367 67.3304C80.026 67.5089 79.8016 67.6786 79.5863 67.8482L79.1925 67L79.1101 66.7946C78.5696 65.442 78.1804 64.4688 77.4705 63.3929C76.8751 62.4107 76.0141 61.308 74.9104 60.1116C73.8342 58.9821 72.877 58.183 71.7046 57.4464C71.4344 57.2813 71.1413 57.1027 70.8299 56.9196C69.8132 56.3125 68.6591 55.6205 67.679 54.7813C66.5616 53.8393 65.5403 52.7679 64.3679 51.3125C63.2412 49.9063 62.4169 48.6027 61.8673 47.3393C61.6246 46.75 61.4048 46.1741 61.1987 45.6205L60.9147 44.8795C60.759 44.4688 60.4888 44.0536 60.2232 43.6518C60.214 43.6339 60.2003 43.6161 60.1911 43.5982C60.7041 44.2768 61.1666 45.0134 61.62 45.7366L62.1787 46.6161C62.2703 46.7589 62.3528 46.8929 62.449 47.0268C64.0244 49.192 66.4013 51.2411 69.1308 52.7902C69.2728 52.875 69.4376 52.9688 69.5567 53.0045C70.3902 53.4375 71.2375 53.7455 72.2175 54.1071C72.5519 54.2321 72.8999 54.3571 73.2663 54.5C74.773 55.0625 76.3668 55.9107 77.7407 56.8929C78.9681 57.808 80.2825 58.8393 81.5923 60.192C82.4304 61.0268 83.3188 62.25 83.9829 63.25C82.9158 64.75 81.6701 66.1161 80.2367 67.3304Z" fill="#1F212B"/>
</svg>
