<svg xmlns="http://www.w3.org/2000/svg" x="0px" y="0px"
width="30" height="30"
viewBox="0 0 172 172"
style=" fill:#000000;"><g transform=""><g fill="none" fill-rule="nonzero" stroke="none" stroke-width="1" stroke-linecap="butt" stroke-linejoin="miter" stroke-miterlimit="10" stroke-dasharray="" stroke-dashoffset="0" font-family="none" font-weight="none" font-size="none" text-anchor="none" style="mix-blend-mode: normal"><path d="M0,172v-172h172v172z" fill="none"></path><path d="" fill="none"></path><g fill="#425a70"><path d="M43.67188,22.93333c-4.33113,0 -8.32414,2.47147 -10.25729,6.34922l-10.48125,20.9625v1.35495v17.2v68.8c0,6.33533 5.13133,11.46667 11.46667,11.46667h103.2c6.33533,0 11.46667,-5.13133 11.46667,-11.46667v-68.8v-17.2v-1.35495l-10.49245,-20.9737c-1.9359,-3.86932 -5.92042,-6.33802 -10.2461,-6.33802zM43.68307,34.4h84.63385l8.6,17.2h-101.83385zM68.8,63.06667h34.4c3.1648,0 5.73333,2.56853 5.73333,5.73333c0,3.1648 -2.56853,5.73333 -5.73333,5.73333h-34.4c-3.1648,0 -5.73333,-2.56853 -5.73333,-5.73333c0,-3.1648 2.56853,-5.73333 5.73333,-5.73333z"></path></g></g></g></svg>